<svg width="170" height="96" viewBox="0 0 170 96" fill="none" xmlns="http://www.w3.org/2000/svg">
<mask id="mask0_734_503" style="mask-type:alpha" maskUnits="userSpaceOnUse" x="0" y="0" width="170" height="96">
<path d="M125.819 0H5.14024C2.30137 0 0 2.30253 0 5.14286V90.8571C0 93.6975 2.30137 96 5.14024 96H125.819C127.274 96 128.662 95.3822 129.637 94.3001L168.24 51.443C170.003 49.4863 170.003 46.5137 168.24 44.557L129.637 1.69993C128.662 0.617791 127.274 0 125.819 0Z" fill="#D9D9D9"/>
</mask>
<g mask="url(#mask0_734_503)">
<path d="M171.264 0H36.9392V96H171.264V0Z" fill="#009640"/>
<path d="M111.626 69.7771C111.947 70.7414 112.148 71.5048 112.229 72.0674C112.309 72.6299 112.202 73.0584 111.907 73.3531C111.613 73.6209 111.091 73.7817 110.341 73.8352C109.591 73.9156 108.561 73.9557 107.249 73.9557C105.884 73.9557 104.813 73.9289 104.036 73.8754C103.287 73.8485 102.711 73.7817 102.309 73.6745C101.908 73.5405 101.627 73.3665 101.466 73.1522C101.306 72.9379 101.172 72.6566 101.065 72.3084L97.5708 61.8619H78.054L74.761 72.0271C74.6539 72.4022 74.5067 72.7236 74.3193 72.9914C74.1586 73.2326 73.8776 73.4333 73.4759 73.5941C73.1012 73.728 72.5524 73.8218 71.8295 73.8754C71.1334 73.9289 70.2098 73.9557 69.0586 73.9557C67.827 73.9557 66.8632 73.9156 66.1672 73.8352C65.471 73.7548 64.9892 73.5674 64.7214 73.2727C64.4538 72.9513 64.3601 72.5093 64.4404 71.9469C64.5206 71.3842 64.7214 70.6343 65.0427 69.6967L81.0659 23.5718C81.2264 23.1165 81.4138 22.7548 81.628 22.487C81.8422 22.1923 82.1768 21.978 82.6321 21.8441C83.1139 21.6833 83.7698 21.5897 84.5998 21.5628C85.4297 21.5093 86.5274 21.4824 87.8928 21.4824C89.4724 21.4824 90.7305 21.5093 91.6676 21.5628C92.6047 21.5897 93.3276 21.6833 93.8361 21.8441C94.3715 21.978 94.7464 22.1923 94.9606 22.487C95.2015 22.7817 95.4023 23.1833 95.5629 23.6923L111.626 69.7771ZM87.7723 31.6476H87.7321L80.3832 53.746H95.1212L87.7723 31.6476Z" fill="white"/>
<path d="M38.4317 0H0V96H38.4317V0Z" fill="white"/>
<path d="M30.3762 30.9304C30.51 31.3321 30.5938 31.6503 30.6272 31.8846C30.6606 32.1189 30.616 32.2976 30.4934 32.4203C30.3707 32.5319 30.1531 32.599 29.8407 32.6212C29.5284 32.6547 29.099 32.6715 28.5524 32.6715C27.9834 32.6715 27.5372 32.6603 27.2137 32.638C26.9014 32.6269 26.6615 32.5989 26.4943 32.5542C26.3269 32.4985 26.2098 32.426 26.1428 32.3367C26.076 32.2474 26.0202 32.1301 25.9756 31.9851L24.5197 27.6323H16.3878L15.0157 31.8678C14.9711 32.0241 14.9097 32.158 14.8316 32.2696C14.7647 32.3701 14.6476 32.4537 14.4803 32.5208C14.3241 32.5767 14.0954 32.6156 13.7942 32.638C13.5042 32.6603 13.1193 32.6715 12.6397 32.6715C12.1265 32.6715 11.725 32.6547 11.4349 32.6212C11.1449 32.5878 10.9441 32.5096 10.8326 32.3869C10.721 32.253 10.682 32.0687 10.7154 31.8344C10.7489 31.6 10.8326 31.2875 10.9664 30.8968L17.6428 11.6781C17.7096 11.4884 17.7877 11.3377 17.877 11.2261C17.9663 11.1034 18.1057 11.0141 18.2952 10.9583C18.496 10.8913 18.7693 10.8523 19.1151 10.8411C19.461 10.8188 19.9183 10.8076 20.4872 10.8076C21.1453 10.8076 21.6696 10.8188 22.0601 10.8411C22.4506 10.8523 22.7516 10.8913 22.9636 10.9583C23.1869 11.0141 23.3429 11.1034 23.4322 11.2261C23.5326 11.3489 23.6162 11.5163 23.6832 11.7284L30.3762 30.9304ZM20.437 15.0431H20.4204L17.3583 24.2507H23.499L20.437 15.0431Z" fill="black"/>
<path d="M30.0082 69.1308C30.0082 69.4545 29.9914 69.7334 29.958 69.9679C29.9357 70.2023 29.8967 70.3919 29.8408 70.5371C29.7963 70.6709 29.7349 70.7657 29.6568 70.8216C29.5898 70.8775 29.5062 70.9053 29.4058 70.9053C29.2608 70.9053 29.0266 70.8048 28.7031 70.6039C28.3796 70.4032 27.9501 70.1855 27.4146 69.9511C26.8792 69.7168 26.2379 69.4991 25.4905 69.2981C24.7542 69.0972 23.8953 68.9968 22.9135 68.9968C21.865 68.9968 20.9168 69.1811 20.069 69.5493C19.2212 69.9064 18.4961 70.4198 17.8939 71.0896C17.2914 71.748 16.8285 72.546 16.505 73.4834C16.1815 74.4098 16.0197 75.4367 16.0197 76.5638C16.0197 77.8027 16.1815 78.8964 16.505 79.8451C16.8396 80.7825 17.3026 81.5693 17.8939 82.2055C18.485 82.8417 19.1933 83.3217 20.0188 83.6453C20.8555 83.969 21.7758 84.1308 22.7797 84.1308C23.2706 84.1308 23.7558 84.0749 24.2354 83.9633C24.7151 83.8517 25.1613 83.6844 25.5741 83.4611V78.4389H21.4746C21.2737 78.4389 21.1177 78.316 21.0061 78.0705C20.8946 77.8139 20.8387 77.3841 20.8387 76.7815C20.8387 76.469 20.8498 76.2067 20.8721 75.9947C20.9057 75.7826 20.9503 75.6151 21.0061 75.4924C21.0618 75.3585 21.1288 75.2635 21.2069 75.2078C21.2849 75.1408 21.3742 75.1073 21.4746 75.1073H28.7867C28.9651 75.1073 29.1214 75.1408 29.2552 75.2078C29.4003 75.2635 29.523 75.3528 29.6234 75.4756C29.7349 75.5985 29.8185 75.749 29.8742 75.9276C29.9301 76.0951 29.958 76.2904 29.958 76.5136V85.1352C29.958 85.47 29.8967 85.7657 29.774 86.0225C29.6623 86.268 29.4226 86.4633 29.0544 86.6085C28.6975 86.7535 28.2513 86.9042 27.7158 87.0605C27.1804 87.2167 26.6227 87.3506 26.0425 87.4622C25.4737 87.5738 24.8935 87.6576 24.3024 87.7133C23.7224 87.7692 23.1367 87.797 22.5454 87.797C20.8164 87.797 19.2658 87.5515 17.8939 87.0605C16.5329 86.5583 15.3783 85.8384 14.4302 84.9009C13.482 83.9522 12.7569 82.8026 12.2549 81.4523C11.753 80.0906 11.502 78.5505 11.502 76.8317C11.502 75.0571 11.7697 73.4668 12.3051 72.0605C12.8406 70.643 13.5991 69.4433 14.5808 68.4611C15.5624 67.4678 16.7448 66.7089 18.1281 66.1843C19.5225 65.6597 21.0729 65.3975 22.7797 65.3975C23.7167 65.3975 24.57 65.4645 25.3399 65.5984C26.1095 65.7211 26.7788 65.8775 27.3476 66.0672C27.9278 66.2457 28.4074 66.4411 28.7867 66.6532C29.1659 66.8652 29.4281 67.0493 29.5732 67.2055C29.7293 67.3619 29.8408 67.5851 29.9078 67.8753C29.9746 68.1542 30.0082 68.5728 30.0082 69.1308Z" fill="black"/>
<path d="M28.5351 46.9286L20.4308 38.2529L12.3062 46.9509L14.5443 49.3468L18.8485 44.7388V57.4135H22.0133V44.7388L26.297 49.3248L28.5351 46.9286Z" fill="black"/>
<path fill-rule="evenodd" clip-rule="evenodd" d="M125.819 1.71429H5.14024C3.24766 1.71429 1.71341 3.24931 1.71341 5.14286V90.8571C1.71341 92.7507 3.24766 94.2857 5.14024 94.2857H125.819C126.789 94.2857 127.714 93.8739 128.364 93.1524L166.967 50.2953C168.142 48.9909 168.142 47.0091 166.967 45.7047L128.364 2.84757C127.714 2.12614 126.789 1.71429 125.819 1.71429ZM5.14024 0H125.819C127.274 0 128.662 0.617791 129.637 1.69993L168.24 44.557C170.003 46.5137 170.003 49.4863 168.24 51.443L129.637 94.3001C128.662 95.3822 127.274 96 125.819 96H5.14024C2.30137 96 0 93.6975 0 90.8571V5.14286C0 2.30253 2.30137 0 5.14024 0Z" fill="black"/>
</g>
</svg>
