<svg width="171" height="96" viewBox="0 0 171 96" fill="none" xmlns="http://www.w3.org/2000/svg">
<mask id="mask0_734_514" style="mask-type:alpha" maskUnits="userSpaceOnUse" x="0" y="0" width="171" height="96">
<path d="M126.428 0H5.75011C2.91098 0 0.609863 2.30253 0.609863 5.14286V90.8571C0.609863 93.6975 2.91098 96 5.75011 96H126.428C127.884 96 129.272 95.3822 130.247 94.3001L168.85 51.443C170.613 49.4863 170.613 46.5137 168.85 44.557L130.247 1.69993C129.272 0.617791 127.884 0 126.428 0Z" fill="#D9D9D9"/>
</mask>
<g mask="url(#mask0_734_514)">
<path d="M171.874 0H37.5493V96H171.874V0Z" fill="#52AE32"/>
<path d="M107.297 58.1253C107.297 59.9736 107.042 61.6476 106.533 63.1476C106.024 64.6476 105.315 65.9736 104.405 67.1253C103.521 68.2771 102.452 69.2681 101.192 70.0985C99.9604 70.9289 98.5965 71.6119 97.0956 72.1476C95.5981 72.6833 93.9909 73.0852 92.2775 73.3531C90.5915 73.5941 88.7033 73.7147 86.6146 73.7147H72.8011C71.917 73.7147 71.1682 73.4603 70.5514 72.9513C69.9637 72.4156 69.6689 71.5584 69.6689 70.3799V25.0584C69.6689 23.8799 69.9637 23.0361 70.5514 22.5271C71.1682 21.9914 71.917 21.7236 72.8011 21.7236H85.8522C89.0374 21.7236 91.7292 21.9914 93.9241 22.5271C96.1464 23.0628 98.0071 23.8799 99.5064 24.978C101.031 26.0495 102.196 27.4156 103 29.0762C103.804 30.737 104.205 32.6923 104.205 34.9423C104.205 36.2013 104.043 37.3932 103.723 38.5183C103.401 39.6165 102.933 40.6209 102.316 41.5317C101.701 42.4423 100.939 43.246 100.027 43.9423C99.1448 44.6388 98.1271 45.2013 96.9757 45.6299C98.4492 45.8976 99.8011 46.3665 101.031 47.0361C102.291 47.7057 103.375 48.5762 104.285 49.6476C105.222 50.6923 105.957 51.9245 106.494 53.3441C107.028 54.7637 107.297 56.3575 107.297 58.1253ZM93.6431 36.228C93.6431 35.1833 93.482 34.246 93.1616 33.4156C92.8395 32.5852 92.358 31.9022 91.7155 31.3665C91.0729 30.804 90.2556 30.3755 89.2653 30.0808C88.3023 29.7861 87.0036 29.6388 85.3707 29.6388H80.03V43.1388H85.9327C87.4593 43.1388 88.6759 42.9647 89.5874 42.6165C90.4972 42.2414 91.246 41.746 91.8354 41.1299C92.4522 40.487 92.9063 39.7504 93.201 38.92C93.4957 38.0628 93.6431 37.1656 93.6431 36.228ZM96.3331 58.487C96.3331 57.2817 96.1327 56.2103 95.7317 55.2727C95.3291 54.3084 94.7413 53.5048 93.9635 52.8619C93.1873 52.2191 92.1969 51.7236 90.9924 51.3755C89.7879 51.0271 88.2218 50.8531 86.2942 50.8531H80.03V65.6388H87.6598C89.1316 65.6388 90.3636 65.4914 91.3539 65.1967C92.3717 64.8755 93.2404 64.42 93.9635 63.8308C94.7139 63.2147 95.2897 62.4647 95.6906 61.5808C96.1189 60.67 96.3331 59.6388 96.3331 58.487Z" fill="white"/>
<path d="M39.0416 0H0.609863V96H39.0416V0Z" fill="white"/>
<path d="M30.9869 30.9304C31.1205 31.3321 31.2028 31.6503 31.237 31.8846C31.2713 32.1189 31.225 32.2976 31.1034 32.4203C30.98 32.5319 30.7624 32.599 30.4506 32.6212C30.1387 32.6547 29.7087 32.6715 29.1621 32.6715C28.5933 32.6715 28.1478 32.6603 27.8239 32.638C27.5121 32.6269 27.2722 32.5989 27.1043 32.5542C26.9364 32.4985 26.8199 32.426 26.753 32.3367C26.6862 32.2474 26.6297 32.1301 26.5851 31.9851L25.1304 27.6323H16.9969L15.6261 31.8678C15.5816 32.0241 15.5199 32.158 15.4411 32.2696C15.3743 32.3701 15.2577 32.4537 15.0898 32.5208C14.9339 32.5767 14.706 32.6156 14.4045 32.638C14.1149 32.6603 13.7294 32.6715 13.2496 32.6715C12.7356 32.6715 12.3347 32.6547 12.0451 32.6212C11.7555 32.5878 11.5533 32.5096 11.442 32.3869C11.3306 32.253 11.2912 32.0687 11.3255 31.8344C11.358 31.6 11.442 31.2875 11.5756 30.8968L18.2528 11.6781C18.3196 11.4884 18.3984 11.3377 18.4875 11.2261C18.5766 11.1034 18.7154 11.0141 18.9056 10.9583C19.1061 10.8913 19.3785 10.8523 19.7246 10.8411C20.0707 10.8188 20.5282 10.8076 21.0971 10.8076C21.755 10.8076 22.2793 10.8188 22.67 10.8411C23.0606 10.8523 23.3622 10.8913 23.5729 10.9583C23.7974 11.0141 23.9533 11.1034 24.0424 11.2261C24.1418 11.3489 24.2258 11.5163 24.2926 11.7284L30.9869 30.9304ZM21.0474 15.0431H21.0302L17.9684 24.2507H24.1092L21.0474 15.0431Z" fill="black"/>
<path d="M30.6187 69.1308C30.6187 69.4545 30.6015 69.7334 30.5672 69.9679C30.545 70.2023 30.5073 70.3919 30.4507 70.5371C30.4062 70.6709 30.3445 70.7657 30.2674 70.8216C30.2006 70.8775 30.1166 70.9053 30.0155 70.9053C29.8699 70.9053 29.6369 70.8048 29.313 70.6039C28.9892 70.4032 28.5591 70.1855 28.0245 69.9511C27.49 69.7168 26.8474 69.4991 26.1004 69.2981C25.3636 69.0972 24.5052 68.9968 23.5234 68.9968C22.4748 68.9968 21.5273 69.1811 20.6791 69.5493C19.831 69.9064 19.1062 70.4198 18.5031 71.0896C17.9017 71.748 17.4391 72.546 17.1152 73.4834C16.7914 74.4098 16.6303 75.4367 16.6303 76.5638C16.6303 77.8027 16.7914 78.8964 17.1152 79.8451C17.4493 80.7825 17.912 81.5693 18.5031 82.2055C19.0942 82.8417 19.8036 83.3217 20.6295 83.6453C21.4656 83.969 22.3857 84.1308 23.3898 84.1308C23.8798 84.1308 24.3664 84.0749 24.8462 83.9633C25.3242 83.8517 25.7714 83.6844 26.1843 83.4611V78.4389H22.0841C21.8837 78.4389 21.7277 78.316 21.6164 78.0705C21.505 77.8139 21.4485 77.3841 21.4485 76.7815C21.4485 76.469 21.4605 76.2067 21.4827 75.9947C21.5153 75.7826 21.5598 75.6151 21.6164 75.4924C21.6712 75.3585 21.738 75.2635 21.8168 75.2078C21.8957 75.1408 21.9848 75.1073 22.0841 75.1073H29.397C29.5752 75.1073 29.7311 75.1408 29.8648 75.2078C30.0104 75.2635 30.132 75.3528 30.2331 75.4756C30.3445 75.5985 30.4285 75.749 30.485 75.9276C30.5398 76.0951 30.5672 76.2904 30.5672 76.5136V85.1352C30.5672 85.47 30.5073 85.7657 30.3839 86.0225C30.2725 86.268 30.0327 86.4633 29.6643 86.6085C29.3079 86.7535 28.8607 86.9042 28.3261 87.0605C27.7898 87.2167 27.233 87.3506 26.6521 87.4622C26.0833 87.5738 25.5041 87.6576 24.913 87.7133C24.3321 87.7692 23.7462 87.797 23.155 87.797C21.4262 87.797 19.8755 87.5515 18.5031 87.0605C17.1426 86.5583 15.9878 85.8384 15.0403 84.9009C14.0911 83.9522 13.3663 82.8026 12.8643 81.4523C12.3622 80.0906 12.1121 78.5505 12.1121 76.8317C12.1121 75.0571 12.3794 73.4668 12.9157 72.0605C13.4502 70.643 14.2093 69.4433 15.1911 68.4611C16.1728 67.4678 17.3551 66.7089 18.7378 66.1843C20.1326 65.6597 21.6832 65.3975 23.3898 65.3975C24.327 65.3975 25.1803 65.4645 25.9496 65.5984C26.7189 65.7211 27.3889 65.8775 27.9577 66.0672C28.5369 66.2457 29.0166 66.4411 29.397 66.6532C29.7756 66.8652 30.0378 67.0493 30.1834 67.2055C30.3394 67.3619 30.4507 67.5851 30.5176 67.8753C30.5844 68.1542 30.6187 68.5728 30.6187 69.1308Z" fill="black"/>
<path d="M29.145 46.9286L21.0405 38.2529L12.9155 46.9509L15.155 49.3468L19.4591 44.7388V57.4135H22.6237V44.7388L26.9073 49.3248L29.145 46.9286Z" fill="black"/>
<path fill-rule="evenodd" clip-rule="evenodd" d="M126.428 1.71429H5.75011C3.85678 1.71429 2.32328 3.24931 2.32328 5.14286V90.8571C2.32328 92.7507 3.85678 94.2857 5.75011 94.2857H126.428C127.399 94.2857 128.324 93.8739 128.974 93.1524L167.577 50.2953C168.752 48.9909 168.752 47.0091 167.577 45.7047L128.974 2.84757C128.324 2.12614 127.399 1.71429 126.428 1.71429ZM5.75011 0H126.428C127.884 0 129.272 0.617791 130.247 1.69993L168.85 44.557C170.613 46.5137 170.613 49.4863 168.85 51.443L130.247 94.3001C129.272 95.3822 127.884 96 126.428 96H5.75011C2.91098 96 0.609863 93.6975 0.609863 90.8571V5.14286C0.609863 2.30253 2.91098 0 5.75011 0Z" fill="black"/>
</g>
</svg>
