<svg width="170" height="96" viewBox="0 0 170 96" fill="none" xmlns="http://www.w3.org/2000/svg">
<mask id="mask0_734_525" style="mask-type:alpha" maskUnits="userSpaceOnUse" x="0" y="0" width="170" height="96">
<path d="M126.037 0H5.35973C2.5206 0 0.219482 2.30253 0.219482 5.14286V90.8571C0.219482 93.6975 2.5206 96 5.35973 96H126.037C127.494 96 128.881 95.3822 129.856 94.3001L168.46 51.443C170.223 49.4863 170.223 46.5137 168.46 44.557L129.856 1.69993C128.881 0.617791 127.494 0 126.037 0Z" fill="#D9D9D9"/>
</mask>
<g mask="url(#mask0_734_525)">
<path d="M171.483 0H37.1589V96H171.483V0Z" fill="#C8D400"/>
<path d="M105.219 65.8396C105.219 66.5094 105.194 67.0852 105.139 67.5674C105.113 68.0227 105.06 68.4246 104.979 68.7727C104.899 69.0942 104.791 69.3755 104.657 69.6165C104.524 69.8575 104.309 70.1389 104.015 70.4603C103.72 70.7548 103.144 71.1433 102.288 71.6253C101.458 72.1075 100.427 72.5762 99.1966 73.0317C97.9903 73.4603 96.5991 73.8218 95.0193 74.1165C93.467 74.411 91.7809 74.5585 89.9596 74.5585C86.3991 74.5585 83.1865 74.0094 80.3216 72.911C77.4568 71.8129 75.0203 70.179 73.0122 68.0094C71.0041 65.8129 69.4654 63.0808 68.3946 59.8129C67.3237 56.5451 66.7891 52.7414 66.7891 48.4022C66.7891 43.9825 67.3768 40.0585 68.5556 36.6299C69.7327 33.2013 71.3793 30.3218 73.4954 27.9914C75.6097 25.6612 78.1405 23.8933 81.0841 22.6879C84.0569 21.4825 87.3226 20.8799 90.8831 20.8799C92.3292 20.8799 93.7205 21.0004 95.0604 21.2414C96.3986 21.4825 97.6305 21.8041 98.7545 22.2057C99.906 22.5808 100.936 23.0227 101.846 23.5317C102.757 24.0405 103.386 24.4825 103.734 24.8575C104.109 25.2057 104.363 25.5004 104.496 25.7414C104.632 25.9825 104.738 26.2905 104.818 26.6656C104.899 27.0405 104.952 27.4825 104.979 27.9914C105.032 28.5004 105.06 29.1299 105.06 29.8799C105.06 30.6834 105.032 31.3665 104.979 31.929C104.925 32.4914 104.832 32.9469 104.698 33.2951C104.563 33.6433 104.404 33.8977 104.215 34.0585C104.028 34.2191 103.814 34.2995 103.573 34.2995C103.172 34.2995 102.663 34.0718 102.048 33.6165C101.431 33.1343 100.629 32.6119 99.637 32.0495C98.674 31.4603 97.5089 30.9379 96.1433 30.4825C94.8051 30.0004 93.1996 29.7594 91.3252 29.7594C89.2639 29.7594 87.4169 30.1879 85.784 31.0451C84.1768 31.8755 82.7975 33.0808 81.6461 34.6612C80.5221 36.2147 79.6654 38.1031 79.076 40.3262C78.4883 42.5495 78.1936 45.0539 78.1936 47.8396C78.1936 50.8933 78.502 53.5451 79.1171 55.7951C79.7596 58.0183 80.6558 59.8531 81.8072 61.2995C82.986 62.746 84.391 63.8308 86.0239 64.5539C87.6842 65.2504 89.5449 65.5986 91.6062 65.5986C93.4807 65.5986 95.0998 65.3843 96.4654 64.9557C97.831 64.5004 98.9944 64.0048 99.9591 63.4691C100.949 62.9334 101.753 62.4513 102.368 62.0227C103.011 61.5942 103.506 61.3799 103.854 61.3799C104.123 61.3799 104.337 61.4334 104.496 61.5405C104.657 61.6477 104.791 61.8619 104.899 62.1834C105.005 62.5048 105.086 62.9603 105.139 63.5495C105.194 64.1119 105.219 64.8755 105.219 65.8396Z" fill="white"/>
<path d="M38.6512 0H0.219482V96H38.6512V0Z" fill="white"/>
<path d="M30.5965 30.9304C30.7302 31.3321 30.8124 31.6503 30.8467 31.8846C30.8809 32.1189 30.8347 32.2976 30.713 32.4203C30.5896 32.5319 30.372 32.599 30.0602 32.6212C29.7483 32.6547 29.3183 32.6715 28.7717 32.6715C28.2029 32.6715 27.7574 32.6603 27.4335 32.638C27.1217 32.6269 26.8818 32.5989 26.7139 32.5542C26.546 32.4985 26.4295 32.426 26.3627 32.3367C26.2958 32.2474 26.2393 32.1301 26.1948 31.9851L24.7401 27.6323H16.6065L15.2358 31.8678C15.1912 32.0241 15.1295 32.158 15.0507 32.2696C14.9839 32.3701 14.8674 32.4537 14.6995 32.5208C14.5435 32.5767 14.3156 32.6156 14.0141 32.638C13.7245 32.6603 13.339 32.6715 12.8592 32.6715C12.3452 32.6715 11.9443 32.6547 11.6547 32.6212C11.3651 32.5878 11.163 32.5096 11.0516 32.3869C10.9402 32.253 10.9008 32.0687 10.9351 31.8344C10.9676 31.6 11.0516 31.2875 11.1852 30.8968L17.8624 11.6781C17.9292 11.4884 18.0081 11.3377 18.0972 11.2261C18.1863 11.1034 18.325 11.0141 18.5152 10.9583C18.7157 10.8913 18.9881 10.8523 19.3342 10.8411C19.6804 10.8188 20.1378 10.8076 20.7067 10.8076C21.3646 10.8076 21.8889 10.8188 22.2796 10.8411C22.6702 10.8523 22.9718 10.8913 23.1825 10.9583C23.407 11.0141 23.5629 11.1034 23.652 11.2261C23.7514 11.3489 23.8354 11.5163 23.9022 11.7284L30.5965 30.9304ZM20.657 15.0431H20.6399L17.578 24.2507H23.7189L20.657 15.0431Z" fill="black"/>
<path d="M30.2283 69.1308C30.2283 69.4545 30.2112 69.7334 30.1769 69.9679C30.1546 70.2023 30.1169 70.3919 30.0603 70.5371C30.0158 70.6709 29.9541 70.7657 29.877 70.8216C29.8102 70.8775 29.7262 70.9053 29.6251 70.9053C29.4795 70.9053 29.2465 70.8048 28.9227 70.6039C28.5988 70.4032 28.1688 70.1855 27.6342 69.9511C27.0996 69.7168 26.457 69.4991 25.71 69.2981C24.9732 69.0972 24.1148 68.9968 23.133 68.9968C22.0844 68.9968 21.1369 69.1811 20.2888 69.5493C19.4406 69.9064 18.7158 70.4198 18.1127 71.0896C17.5113 71.748 17.0487 72.546 16.7248 73.4834C16.401 74.4098 16.24 75.4367 16.24 76.5638C16.24 77.8027 16.401 78.8964 16.7248 79.8451C17.059 80.7825 17.5216 81.5693 18.1127 82.2055C18.7038 82.8417 19.4132 83.3217 20.2391 83.6453C21.0752 83.969 21.9953 84.1308 22.9994 84.1308C23.4894 84.1308 23.976 84.0749 24.4558 83.9633C24.9338 83.8517 25.381 83.6844 25.7939 83.4611V78.4389H21.6938C21.4933 78.4389 21.3374 78.316 21.226 78.0705C21.1146 77.8139 21.0581 77.3841 21.0581 76.7815C21.0581 76.469 21.0701 76.2067 21.0924 75.9947C21.1249 75.7826 21.1694 75.6151 21.226 75.4924C21.2808 75.3585 21.3476 75.2635 21.4265 75.2078C21.5053 75.1408 21.5944 75.1073 21.6938 75.1073H29.0066C29.1848 75.1073 29.3407 75.1408 29.4744 75.2078C29.62 75.2635 29.7417 75.3528 29.8428 75.4756C29.9541 75.5985 30.0381 75.749 30.0946 75.9276C30.1495 76.0951 30.1769 76.2904 30.1769 76.5136V85.1352C30.1769 85.47 30.1169 85.7657 29.9936 86.0225C29.8822 86.268 29.6423 86.4633 29.2739 86.6085C28.9175 86.7535 28.4703 86.9042 27.9357 87.0605C27.3994 87.2167 26.8426 87.3506 26.2617 87.4622C25.6929 87.5738 25.1137 87.6576 24.5226 87.7133C23.9418 87.7692 23.3558 87.797 22.7646 87.797C21.0358 87.797 19.4852 87.5515 18.1127 87.0605C16.7523 86.5583 15.5974 85.8384 14.6499 84.9009C13.7007 83.9522 12.9759 82.8026 12.4739 81.4523C11.9718 80.0906 11.7217 78.5505 11.7217 76.8317C11.7217 75.0571 11.989 73.4668 12.5253 72.0605C13.0599 70.643 13.8189 69.4433 14.8007 68.4611C15.7825 67.4678 16.9647 66.7089 18.3475 66.1843C19.7422 65.6597 21.2928 65.3975 22.9994 65.3975C23.9366 65.3975 24.7899 65.4645 25.5592 65.5984C26.3285 65.7211 26.9985 65.8775 27.5673 66.0672C28.1465 66.2457 28.6262 66.4411 29.0066 66.6532C29.3853 66.8652 29.6474 67.0493 29.7931 67.2055C29.949 67.3619 30.0603 67.5851 30.1272 67.8753C30.194 68.1542 30.2283 68.5728 30.2283 69.1308Z" fill="black"/>
<path d="M28.7546 46.9286L20.6501 38.2529L12.5251 46.9509L14.7646 49.3468L19.0687 44.7388V57.4135H22.2334V44.7388L26.5169 49.3248L28.7546 46.9286Z" fill="black"/>
<path fill-rule="evenodd" clip-rule="evenodd" d="M126.037 1.71429H5.35973C3.4664 1.71429 1.9329 3.24931 1.9329 5.14286V90.8571C1.9329 92.7507 3.4664 94.2857 5.35973 94.2857H126.037C127.009 94.2857 127.934 93.8739 128.583 93.1524L167.187 50.2953C168.362 48.9909 168.362 47.0091 167.187 45.7047L128.583 2.84757C127.934 2.12614 127.009 1.71429 126.037 1.71429ZM5.35973 0H126.037C127.494 0 128.881 0.617791 129.856 1.69993L168.46 44.557C170.223 46.5137 170.223 49.4863 168.46 51.443L129.856 94.3001C128.881 95.3822 127.494 96 126.037 96H5.35973C2.5206 96 0.219482 93.6975 0.219482 90.8571V5.14286C0.219482 2.30253 2.5206 0 5.35973 0Z" fill="black"/>
</g>
</svg>
