<svg width="171" height="96" viewBox="0 0 171 96" fill="none" xmlns="http://www.w3.org/2000/svg">
<mask id="mask0_734_536" style="mask-type:alpha" maskUnits="userSpaceOnUse" x="0" y="0" width="171" height="96">
<path d="M126.647 0H5.96934C3.13022 0 0.829102 2.30253 0.829102 5.14286V90.8571C0.829102 93.6975 3.13022 96 5.96934 96H126.647C128.103 96 129.491 95.3822 130.466 94.3001L169.069 51.443C170.832 49.4863 170.832 46.5137 169.069 44.557L130.466 1.69993C129.491 0.617791 128.103 0 126.647 0Z" fill="#D9D9D9"/>
</mask>
<g mask="url(#mask0_734_536)">
<path d="M172.093 0H37.7686V96H172.093V0Z" fill="#FFED00"/>
<path d="M113.058 46.9557C113.058 51.7236 112.429 55.8084 111.17 59.2103C109.94 62.5852 108.159 65.3441 105.829 67.487C103.501 69.6299 100.663 71.2103 97.3151 72.228C93.9962 73.2191 90.0331 73.7147 85.4291 73.7147H73.0206C72.1364 73.7147 71.3877 73.4603 70.7709 72.9513C70.1832 72.4156 69.8884 71.5584 69.8884 70.3799V25.0584C69.8884 23.8799 70.1832 23.0361 70.7709 22.5271C71.3877 21.9914 72.1364 21.7236 73.0206 21.7236H86.3526C90.984 21.7236 94.906 22.2727 98.1187 23.3709C101.359 24.4423 104.076 26.0495 106.271 28.1923C108.493 30.3084 110.179 32.9333 111.331 36.0674C112.482 39.2013 113.058 42.8308 113.058 46.9557ZM102.135 47.3174C102.135 44.8531 101.84 42.5628 101.251 40.4469C100.689 38.3308 99.7653 36.496 98.4802 34.9423C97.2226 33.3888 95.5897 32.1833 93.5815 31.3262C91.6008 30.4423 88.9896 30.0004 85.7495 30.0004H80.4088V65.3575H85.9106C88.8028 65.3575 91.2393 64.9824 93.22 64.2326C95.2007 63.4824 96.8473 62.3575 98.1598 60.8575C99.4979 59.3308 100.488 57.4423 101.131 55.1923C101.801 52.9423 102.135 50.3174 102.135 47.3174Z" fill="white"/>
<path d="M39.2608 0H0.829102V96H39.2608V0Z" fill="white"/>
<path d="M31.2064 30.9304C31.34 31.3321 31.4223 31.6503 31.4565 31.8846C31.4908 32.1189 31.4445 32.2976 31.3229 32.4203C31.1995 32.5319 30.9819 32.599 30.67 32.6212C30.3582 32.6547 29.9282 32.6715 29.3816 32.6715C28.8127 32.6715 28.3672 32.6603 28.0434 32.638C27.7316 32.6269 27.4917 32.5989 27.3238 32.5542C27.1559 32.4985 27.0393 32.426 26.9725 32.3367C26.9057 32.2474 26.8492 32.1301 26.8046 31.9851L25.3499 27.6323H17.2163L15.8456 31.8678C15.8011 32.0241 15.7394 32.158 15.6606 32.2696C15.5937 32.3701 15.4772 32.4537 15.3093 32.5208C15.1534 32.5767 14.9255 32.6156 14.6239 32.638C14.3344 32.6603 13.9489 32.6715 13.4691 32.6715C12.9551 32.6715 12.5542 32.6547 12.2646 32.6212C11.975 32.5878 11.7728 32.5096 11.6614 32.3869C11.5501 32.253 11.5107 32.0687 11.5449 31.8344C11.5775 31.6 11.6614 31.2875 11.7951 30.8968L18.4723 11.6781C18.5391 11.4884 18.6179 11.3377 18.707 11.2261C18.7961 11.1034 18.9349 11.0141 19.1251 10.9583C19.3256 10.8913 19.598 10.8523 19.9441 10.8411C20.2902 10.8188 20.7477 10.8076 21.3165 10.8076C21.9745 10.8076 22.4988 10.8188 22.8895 10.8411C23.2801 10.8523 23.5817 10.8913 23.7924 10.9583C24.0169 11.0141 24.1728 11.1034 24.2619 11.2261C24.3613 11.3489 24.4452 11.5163 24.512 11.7284L31.2064 30.9304ZM21.2669 15.0431H21.2497L18.1879 24.2507H24.3287L21.2669 15.0431Z" fill="black"/>
<path d="M30.8379 69.1308C30.8379 69.4545 30.8207 69.7334 30.7865 69.9679C30.7642 70.2023 30.7265 70.3919 30.6699 70.5371C30.6254 70.6709 30.5637 70.7657 30.4866 70.8216C30.4198 70.8775 30.3358 70.9053 30.2347 70.9053C30.0891 70.9053 29.8561 70.8048 29.5323 70.6039C29.2084 70.4032 28.7783 70.1855 28.2438 69.9511C27.7092 69.7168 27.0667 69.4991 26.3196 69.2981C25.5828 69.0972 24.7244 68.9968 23.7426 68.9968C22.694 68.9968 21.7465 69.1811 20.8984 69.5493C20.0502 69.9064 19.3254 70.4198 18.7223 71.0896C18.1209 71.748 17.6583 72.546 17.3344 73.4834C17.0106 74.4098 16.8496 75.4367 16.8496 76.5638C16.8496 77.8027 17.0106 78.8964 17.3344 79.8451C17.6686 80.7825 18.1312 81.5693 18.7223 82.2055C19.3134 82.8417 20.0228 83.3217 20.8486 83.6453C21.6848 83.969 22.6049 84.1308 23.609 84.1308C24.099 84.1308 24.5856 84.0749 25.0654 83.9633C25.5434 83.8517 25.9906 83.6844 26.4035 83.4611V78.4389H22.3033C22.1029 78.4389 21.947 78.316 21.8356 78.0705C21.7242 77.8139 21.6677 77.3841 21.6677 76.7815C21.6677 76.469 21.6797 76.2067 21.702 75.9947C21.7345 75.7826 21.7791 75.6151 21.8356 75.4924C21.8904 75.3585 21.9573 75.2635 22.0361 75.2078C22.1149 75.1408 22.204 75.1073 22.3033 75.1073H29.6162C29.7944 75.1073 29.9503 75.1408 30.084 75.2078C30.2296 75.2635 30.3513 75.3528 30.4524 75.4756C30.5637 75.5985 30.6477 75.749 30.7042 75.9276C30.7591 76.0951 30.7865 76.2904 30.7865 76.5136V85.1352C30.7865 85.47 30.7265 85.7657 30.6032 86.0225C30.4918 86.268 30.2519 86.4633 29.8835 86.6085C29.5271 86.7535 29.0799 86.9042 28.5453 87.0605C28.009 87.2167 27.4522 87.3506 26.8713 87.4622C26.3025 87.5738 25.7233 87.6576 25.1322 87.7133C24.5513 87.7692 23.9653 87.797 23.3742 87.797C21.6454 87.797 20.0947 87.5515 18.7223 87.0605C17.3619 86.5583 16.207 85.8384 15.2595 84.9009C14.3103 83.9522 13.5855 82.8026 13.0835 81.4523C12.5814 80.0906 12.3313 78.5505 12.3313 76.8317C12.3313 75.0571 12.5986 73.4668 13.1349 72.0605C13.6695 70.643 14.4285 69.4433 15.4103 68.4611C16.3921 67.4678 17.5743 66.7089 18.957 66.1843C20.3517 65.6597 21.9024 65.3975 23.609 65.3975C24.5462 65.3975 25.3995 65.4645 26.1688 65.5984C26.9381 65.7211 27.6081 65.8775 28.1769 66.0672C28.7561 66.2457 29.2358 66.4411 29.6162 66.6532C29.9949 66.8652 30.257 67.0493 30.4027 67.2055C30.5586 67.3619 30.6699 67.5851 30.7368 67.8753C30.8036 68.1542 30.8379 68.5728 30.8379 69.1308Z" fill="black"/>
<path d="M29.3644 46.9286L21.26 38.2529L13.135 46.9509L15.3745 49.3468L19.6785 44.7388V57.4135H22.8432V44.7388L27.1267 49.3248L29.3644 46.9286Z" fill="black"/>
<path fill-rule="evenodd" clip-rule="evenodd" d="M126.647 1.71429H5.96934C4.07602 1.71429 2.54252 3.24931 2.54252 5.14286V90.8571C2.54252 92.7507 4.07602 94.2857 5.96934 94.2857H126.647C127.618 94.2857 128.544 93.8739 129.193 93.1524L167.796 50.2953C168.972 48.9909 168.972 47.0091 167.796 45.7047L129.193 2.84757C128.544 2.12614 127.618 1.71429 126.647 1.71429ZM5.96934 0H126.647C128.103 0 129.491 0.617791 130.466 1.69993L169.069 44.557C170.832 46.5137 170.832 49.4863 169.069 51.443L130.466 94.3001C129.491 95.3822 128.103 96 126.647 96H5.96934C3.13022 96 0.829102 93.6975 0.829102 90.8571V5.14286C0.829102 2.30253 3.13022 0 5.96934 0Z" fill="black"/>
</g>
</svg>
