<svg width="170" height="96" viewBox="0 0 170 96" fill="none" xmlns="http://www.w3.org/2000/svg">
<mask id="mask0_734_547" style="mask-type:alpha" maskUnits="userSpaceOnUse" x="0" y="0" width="171" height="96">
<path d="M126.257 0H5.57921C2.74008 0 0.438965 2.30253 0.438965 5.14286V90.8571C0.438965 93.6975 2.74008 96 5.57921 96H126.257C127.713 96 129.101 95.3822 130.076 94.3001L168.679 51.443C170.442 49.4863 170.442 46.5137 168.679 44.557L130.076 1.69993C129.101 0.617791 127.713 0 126.257 0Z" fill="#D9D9D9"/>
</mask>
<g mask="url(#mask0_734_547)">
<path d="M171.703 0H37.3784V96H171.703V0Z" fill="#FBBA00"/>
<path d="M100.298 69.5762C100.298 70.3531 100.259 71.0093 100.178 71.5451C100.125 72.0539 100.031 72.4691 99.8975 72.7905C99.7638 73.1119 99.5891 73.3531 99.3749 73.5137C99.1881 73.6476 98.9739 73.7147 98.7323 73.7147H72.6302C71.7461 73.7147 70.9973 73.4603 70.3805 72.9513C69.7928 72.4156 69.498 71.5584 69.498 70.3799V25.0584C69.498 23.8799 69.7928 23.0361 70.3805 22.5271C70.9973 21.9914 71.7461 21.7236 72.6302 21.7236H98.5713C98.8129 21.7236 99.0271 21.7905 99.2138 21.9245C99.4023 22.0584 99.5633 22.2995 99.697 22.6476C99.8306 22.9691 99.9232 23.3976 99.978 23.9333C100.059 24.4423 100.098 25.0985 100.098 25.9022C100.098 26.6522 100.059 27.2951 99.978 27.8308C99.9232 28.3396 99.8306 28.7548 99.697 29.0762C99.5633 29.3976 99.4023 29.6388 99.2138 29.7995C99.0271 29.9333 98.8129 30.0004 98.5713 30.0004H80.0184V42.6967H95.7202C95.9618 42.6967 96.1759 42.7771 96.3627 42.9379C96.5769 43.0718 96.7516 43.2995 96.8853 43.6209C97.0189 43.9156 97.1132 44.3308 97.1663 44.8665C97.2468 45.3755 97.2862 46.0048 97.2862 46.7548C97.2862 47.5317 97.2468 48.1745 97.1663 48.6833C97.1132 49.1923 97.0189 49.6075 96.8853 49.9289C96.7516 50.2236 96.5769 50.4379 96.3627 50.5718C96.1759 50.7057 95.9618 50.7727 95.7202 50.7727H80.0184V65.4379H98.7323C98.9739 65.4379 99.1881 65.5183 99.3749 65.6789C99.5891 65.8128 99.7638 66.0405 99.8975 66.3619C100.031 66.6833 100.125 67.1119 100.178 67.6476C100.259 68.1566 100.298 68.7995 100.298 69.5762ZM112.668 148.099C112.668 152.866 112.039 156.951 110.779 160.353C109.549 163.728 107.769 166.487 105.439 168.63C103.11 170.773 100.273 172.353 96.9247 173.371C93.6058 174.362 89.6427 174.858 85.0387 174.858H72.6302C71.7461 174.858 70.9973 174.604 70.3805 174.095C69.7928 173.558 69.498 172.701 69.498 171.523V126.201C69.498 125.023 69.7928 124.179 70.3805 123.67C70.9973 123.134 71.7461 122.866 72.6302 122.866H85.9623C90.5936 122.866 94.5156 123.416 97.7283 124.514C100.968 125.585 103.686 127.192 105.881 129.335C108.103 131.451 109.789 134.076 110.94 137.21C112.092 140.344 112.668 143.974 112.668 148.099ZM101.745 148.46C101.745 145.996 101.45 143.706 100.86 141.59C100.298 139.474 99.3749 137.639 98.0898 136.085C96.8322 134.532 95.1993 133.326 93.1911 132.469C91.2104 131.585 88.5992 131.143 85.3592 131.143H80.0184V166.5H85.5202C88.4125 166.5 90.8489 166.125 92.8296 165.375C94.8103 164.625 96.4569 163.5 97.7694 162C99.1076 160.474 100.098 158.585 100.74 156.335C101.41 154.085 101.745 151.46 101.745 148.46Z" fill="white"/>
<path d="M38.8707 0H0.438965V96H38.8707V0Z" fill="white"/>
<path d="M30.816 30.9304C30.9496 31.3321 31.0319 31.6503 31.0661 31.8846C31.1004 32.1189 31.0542 32.2976 30.9325 32.4203C30.8091 32.5319 30.5915 32.599 30.2797 32.6212C29.9678 32.6547 29.5378 32.6715 28.9912 32.6715C28.4224 32.6715 27.9769 32.6603 27.653 32.638C27.3412 32.6269 27.1013 32.5989 26.9334 32.5542C26.7655 32.4985 26.649 32.426 26.5821 32.3367C26.5153 32.2474 26.4588 32.1301 26.4142 31.9851L24.9595 27.6323H16.826L15.4552 31.8678C15.4107 32.0241 15.349 32.158 15.2702 32.2696C15.2034 32.3701 15.0868 32.4537 14.9189 32.5208C14.763 32.5767 14.5351 32.6156 14.2336 32.638C13.944 32.6603 13.5585 32.6715 13.0787 32.6715C12.5647 32.6715 12.1638 32.6547 11.8742 32.6212C11.5846 32.5878 11.3824 32.5096 11.2711 32.3869C11.1597 32.253 11.1203 32.0687 11.1546 31.8344C11.1871 31.6 11.2711 31.2875 11.4047 30.8968L18.0819 11.6781C18.1487 11.4884 18.2275 11.3377 18.3166 11.2261C18.4057 11.1034 18.5445 11.0141 18.7347 10.9583C18.9352 10.8913 19.2076 10.8523 19.5537 10.8411C19.8998 10.8188 20.3573 10.8076 20.9262 10.8076C21.5841 10.8076 22.1084 10.8188 22.4991 10.8411C22.8897 10.8523 23.1913 10.8913 23.4021 10.9583C23.6265 11.0141 23.7824 11.1034 23.8715 11.2261C23.9709 11.3489 24.0548 11.5163 24.1217 11.7284L30.816 30.9304ZM20.8765 15.0431H20.8593L17.7975 24.2507H23.9383L20.8765 15.0431Z" fill="black"/>
<path d="M30.4477 69.1308C30.4477 69.4545 30.4306 69.7334 30.3963 69.9679C30.3741 70.2023 30.3363 70.3919 30.2798 70.5371C30.2352 70.6709 30.1736 70.7657 30.0965 70.8216C30.0296 70.8775 29.9457 70.9053 29.8446 70.9053C29.6989 70.9053 29.466 70.8048 29.1421 70.6039C28.8183 70.4032 28.3882 70.1855 27.8536 69.9511C27.319 69.7168 26.6765 69.4991 25.9295 69.2981C25.1927 69.0972 24.3342 68.9968 23.3525 68.9968C22.3038 68.9968 21.3564 69.1811 20.5082 69.5493C19.6601 69.9064 18.9353 70.4198 18.3322 71.0896C17.7308 71.748 17.2681 72.546 16.9443 73.4834C16.6205 74.4098 16.4594 75.4367 16.4594 76.5638C16.4594 77.8027 16.6205 78.8964 16.9443 79.8451C17.2784 80.7825 17.741 81.5693 18.3322 82.2055C18.9233 82.8417 19.6326 83.3217 20.4585 83.6453C21.2947 83.969 22.2148 84.1308 23.2189 84.1308C23.7089 84.1308 24.1955 84.0749 24.6752 83.9633C25.1533 83.8517 25.6005 83.6844 26.0134 83.4611V78.4389H21.9132C21.7127 78.4389 21.5568 78.316 21.4455 78.0705C21.3341 77.8139 21.2775 77.3841 21.2775 76.7815C21.2775 76.469 21.2895 76.2067 21.3118 75.9947C21.3444 75.7826 21.3889 75.6151 21.4455 75.4924C21.5003 75.3585 21.5671 75.2635 21.6459 75.2078C21.7248 75.1408 21.8138 75.1073 21.9132 75.1073H29.2261C29.4043 75.1073 29.5602 75.1408 29.6938 75.2078C29.8395 75.2635 29.9611 75.3528 30.0622 75.4756C30.1736 75.5985 30.2575 75.749 30.3141 75.9276C30.3689 76.0951 30.3963 76.2904 30.3963 76.5136V85.1352C30.3963 85.47 30.3364 85.7657 30.213 86.0225C30.1016 86.268 29.8617 86.4633 29.4934 86.6085C29.137 86.7535 28.6898 86.9042 28.1552 87.0605C27.6189 87.2167 27.062 87.3506 26.4812 87.4622C25.9123 87.5738 25.3332 87.6576 24.742 87.7133C24.1612 87.7692 23.5752 87.797 22.9841 87.797C21.2552 87.797 19.7046 87.5515 18.3322 87.0605C16.9717 86.5583 15.8169 85.8384 14.8694 84.9009C13.9201 83.9522 13.1954 82.8026 12.6933 81.4523C12.1913 80.0906 11.9412 78.5505 11.9412 76.8317C11.9412 75.0571 12.2084 73.4668 12.7447 72.0605C13.2793 70.643 14.0384 69.4433 15.0202 68.4611C16.0019 67.4678 17.1842 66.7089 18.5669 66.1843C19.9616 65.6597 21.5123 65.3975 23.2189 65.3975C24.1561 65.3975 25.0094 65.4645 25.7787 65.5984C26.548 65.7211 27.2179 65.8775 27.7868 66.0672C28.3659 66.2457 28.8457 66.4411 29.2261 66.6532C29.6047 66.8652 29.8669 67.0493 30.0125 67.2055C30.1685 67.3619 30.2798 67.5851 30.3466 67.8753C30.4134 68.1542 30.4477 68.5728 30.4477 69.1308Z" fill="black"/>
<path d="M28.9741 46.9286L20.8696 38.2529L12.7446 46.9509L14.9841 49.3468L19.2882 44.7388V57.4135H22.4528V44.7388L26.7363 49.3248L28.9741 46.9286Z" fill="black"/>
<path fill-rule="evenodd" clip-rule="evenodd" d="M126.257 1.71429H5.57921C3.68589 1.71429 2.15238 3.24931 2.15238 5.14286V90.8571C2.15238 92.7507 3.68589 94.2857 5.57921 94.2857H126.257C127.228 94.2857 128.153 93.8739 128.803 93.1524L167.406 50.2953C168.581 48.9909 168.581 47.0091 167.406 45.7047L128.803 2.84757C128.153 2.12614 127.228 1.71429 126.257 1.71429ZM5.57921 0H126.257C127.713 0 129.101 0.617791 130.076 1.69993L168.679 44.557C170.442 46.5137 170.442 49.4863 168.679 51.443L130.076 94.3001C129.101 95.3822 127.713 96 126.257 96H5.57921C2.74008 96 0.438965 93.6975 0.438965 90.8571V5.14286C0.438965 2.30253 2.74008 0 5.57921 0Z" fill="black"/>
</g>
</svg>
