<svg width="170" height="96" viewBox="0 0 170 96" fill="none" xmlns="http://www.w3.org/2000/svg">
<mask id="mask0_734_558" style="mask-type:alpha" maskUnits="userSpaceOnUse" x="0" y="0" width="170" height="96">
<path d="M125.867 0H5.18907C2.34994 0 0.0488281 2.30253 0.0488281 5.14286V90.8571C0.0488281 93.6975 2.34994 96 5.18907 96H125.867C127.323 96 128.711 95.3822 129.686 94.3001L168.289 51.443C170.052 49.4863 170.052 46.5137 168.289 44.557L129.686 1.69993C128.711 0.617791 127.323 0 125.867 0Z" fill="#D9D9D9"/>
</mask>
<g mask="url(#mask0_734_558)">
<path d="M171.313 0H36.9883V96H171.313V0Z" fill="#EC6608"/>
<path d="M98.2617 26.0628C98.2617 26.8665 98.2223 27.5495 98.1417 28.1119C98.0886 28.6476 97.9807 29.0762 97.8196 29.3976C97.686 29.7191 97.5266 29.9603 97.3382 30.1209C97.1514 30.2817 96.9372 30.3619 96.6956 30.3619H79.7088V44.3441H95.6521C95.8937 44.3441 96.1062 44.411 96.2947 44.5451C96.4814 44.6789 96.6425 44.9066 96.7761 45.228C96.9372 45.5495 97.0434 45.978 97.0982 46.5137C97.1788 47.0495 97.2182 47.7191 97.2182 48.5227C97.2182 49.3262 97.1788 49.996 97.0982 50.5317C97.0434 51.0674 96.9372 51.5093 96.7761 51.8575C96.6425 52.2057 96.4814 52.4603 96.2947 52.6209C96.1062 52.7548 95.8937 52.8218 95.6521 52.8218H79.7088V72.1879C79.7088 72.4824 79.6283 72.737 79.4689 72.9513C79.3079 73.1656 79.0132 73.3531 78.5848 73.5137C78.1839 73.6476 77.6476 73.7548 76.9777 73.8352C76.3094 73.9156 75.4527 73.9557 74.4075 73.9557C73.3915 73.9557 72.5348 73.9156 71.8374 73.8352C71.1692 73.7548 70.6329 73.6476 70.2319 73.5137C69.831 73.3531 69.5363 73.1656 69.3478 72.9513C69.1885 72.737 69.1079 72.4824 69.1079 72.1879V25.0584C69.1079 23.8799 69.4026 23.0361 69.9903 22.5271C70.6072 21.9914 71.3559 21.7236 72.24 21.7236H96.6956C96.9372 21.7236 97.1514 21.804 97.3382 21.9647C97.5266 22.0985 97.686 22.3396 97.8196 22.6879C97.9807 23.0093 98.0886 23.4513 98.1417 24.0137C98.2223 24.5762 98.2617 25.2593 98.2617 26.0628Z" fill="white"/>
<path d="M38.4805 0H0.0488281V96H38.4805V0Z" fill="white"/>
<path d="M30.4258 30.9304C30.5595 31.3321 30.6417 31.6503 30.676 31.8846C30.7102 32.1189 30.664 32.2976 30.5423 32.4203C30.4189 32.5319 30.2014 32.599 29.8895 32.6212C29.5777 32.6547 29.1476 32.6715 28.601 32.6715C28.0322 32.6715 27.5867 32.6603 27.2628 32.638C26.951 32.6269 26.7111 32.5989 26.5432 32.5542C26.3753 32.4985 26.2588 32.426 26.1919 32.3367C26.1251 32.2474 26.0685 32.1301 26.024 31.9851L24.5693 27.6323H16.4358L15.065 31.8678C15.0205 32.0241 14.9588 32.158 14.88 32.2696C14.8132 32.3701 14.6966 32.4537 14.5287 32.5208C14.3728 32.5767 14.145 32.6156 13.8434 32.638C13.5539 32.6603 13.1683 32.6715 12.6886 32.6715C12.1745 32.6715 11.7736 32.6547 11.484 32.6212C11.1945 32.5878 10.9923 32.5096 10.8809 32.3869C10.7695 32.253 10.7302 32.0687 10.7644 31.8344C10.797 31.6 10.8809 31.2875 11.0146 30.8968L17.6917 11.6781C17.7585 11.4884 17.8374 11.3377 17.9265 11.2261C18.0156 11.1034 18.1543 11.0141 18.3445 10.9583C18.5449 10.8913 18.8174 10.8523 19.1635 10.8411C19.5096 10.8188 19.9671 10.8076 20.5359 10.8076C21.1939 10.8076 21.7182 10.8188 22.1089 10.8411C22.4995 10.8523 22.8011 10.8913 23.0118 10.9583C23.2363 11.0141 23.3923 11.1034 23.4814 11.2261C23.5808 11.3489 23.6647 11.5163 23.7315 11.7284L30.4258 30.9304ZM20.4862 15.0431H20.4692L17.4072 24.2507H23.5482L20.4862 15.0431Z" fill="black"/>
<path d="M30.0576 69.1308C30.0576 69.4545 30.0405 69.7334 30.0062 69.9679C29.9839 70.2023 29.9463 70.3919 29.8897 70.5371C29.8452 70.6709 29.7835 70.7657 29.7064 70.8216C29.6396 70.8775 29.5555 70.9053 29.4545 70.9053C29.3088 70.9053 29.0758 70.8048 28.752 70.6039C28.4282 70.4032 27.9981 70.1855 27.4635 69.9511C26.9289 69.7168 26.2864 69.4991 25.5393 69.2981C24.8026 69.0972 23.9441 68.9968 22.9623 68.9968C21.9137 68.9968 20.9662 69.1811 20.1181 69.5493C19.27 69.9064 18.5452 70.4198 17.942 71.0896C17.3406 71.748 16.878 72.546 16.5542 73.4834C16.2303 74.4098 16.0692 75.4367 16.0692 76.5638C16.0692 77.8027 16.2303 78.8964 16.5542 79.8451C16.8883 80.7825 17.3509 81.5693 17.942 82.2055C18.5332 82.8417 19.2426 83.3217 20.0684 83.6453C20.9046 83.969 21.8246 84.1308 22.8287 84.1308C23.3187 84.1308 23.8054 84.0749 24.2851 83.9633C24.7632 83.8517 25.2104 83.6844 25.6233 83.4611V78.4389H21.5231C21.3226 78.4389 21.1667 78.316 21.0553 78.0705C20.944 77.8139 20.8874 77.3841 20.8874 76.7815C20.8874 76.469 20.8994 76.2067 20.9217 75.9947C20.9542 75.7826 20.9988 75.6151 21.0553 75.4924C21.1102 75.3585 21.177 75.2635 21.2558 75.2078C21.3346 75.1408 21.4237 75.1073 21.5231 75.1073H28.836C29.0142 75.1073 29.17 75.1408 29.3036 75.2078C29.4493 75.2635 29.571 75.3528 29.6721 75.4756C29.7835 75.5985 29.8674 75.749 29.9239 75.9276C29.9787 76.0951 30.0062 76.2904 30.0062 76.5136V85.1352C30.0062 85.47 29.9462 85.7657 29.8229 86.0225C29.7115 86.268 29.4716 86.4633 29.1032 86.6085C28.7468 86.7535 28.2997 86.9042 27.7651 87.0605C27.2288 87.2167 26.6718 87.3506 26.091 87.4622C25.5221 87.5738 24.9431 87.6576 24.352 87.7133C23.7711 87.7692 23.1851 87.797 22.594 87.797C20.8652 87.797 19.3145 87.5515 17.942 87.0605C16.5816 86.5583 15.4267 85.8384 14.4792 84.9009C13.53 83.9522 12.8052 82.8026 12.3032 81.4523C11.8011 80.0906 11.551 78.5505 11.551 76.8317C11.551 75.0571 11.8183 73.4668 12.3546 72.0605C12.8892 70.643 13.6482 69.4433 14.63 68.4611C15.6118 67.4678 16.7941 66.7089 18.1768 66.1843C19.5715 65.6597 21.1221 65.3975 22.8287 65.3975C23.7659 65.3975 24.6192 65.4645 25.3885 65.5984C26.1579 65.7211 26.8278 65.8775 27.3967 66.0672C27.9758 66.2457 28.4556 66.4411 28.836 66.6532C29.2146 66.8652 29.4768 67.0493 29.6224 67.2055C29.7783 67.3619 29.8897 67.5851 29.9565 67.8753C30.0234 68.1542 30.0576 68.5728 30.0576 69.1308Z" fill="black"/>
<path d="M28.5839 46.9286L20.4795 38.2529L12.3545 46.9509L14.5939 49.3468L18.898 44.7388V57.4135H22.0627V44.7388L26.3463 49.3248L28.5839 46.9286Z" fill="black"/>
<path fill-rule="evenodd" clip-rule="evenodd" d="M125.867 1.71429H5.18907C3.29575 1.71429 1.76224 3.24931 1.76224 5.14286V90.8571C1.76224 92.7507 3.29575 94.2857 5.18907 94.2857H125.867C126.838 94.2857 127.763 93.8739 128.413 93.1524L167.016 50.2953C168.191 48.9909 168.191 47.0091 167.016 45.7047L128.413 2.84757C127.763 2.12614 126.838 1.71429 125.867 1.71429ZM5.18907 0H125.867C127.323 0 128.711 0.617791 129.686 1.69993L168.289 44.557C170.052 46.5137 170.052 49.4863 168.289 51.443L129.686 94.3001C128.711 95.3822 127.323 96 125.867 96H5.18907C2.34994 96 0.0488281 93.6975 0.0488281 90.8571V5.14286C0.0488281 2.30253 2.34994 0 5.18907 0Z" fill="black"/>
</g>
</svg>
