<svg width="171" height="96" viewBox="0 0 171 96" fill="none" xmlns="http://www.w3.org/2000/svg">
<mask id="mask0_734_569" style="mask-type:alpha" maskUnits="userSpaceOnUse" x="0" y="0" width="171" height="96">
<path d="M126.476 0H5.79869C2.95956 0 0.658447 2.30253 0.658447 5.14286V90.8571C0.658447 93.6975 2.95956 96 5.79869 96H126.476C127.933 96 129.32 95.3822 130.295 94.3001L168.899 51.443C170.662 49.4863 170.662 46.5137 168.899 44.557L130.295 1.69993C129.32 0.617791 127.933 0 126.476 0Z" fill="#D9D9D9"/>
</mask>
<g mask="url(#mask0_734_569)">
<path d="M171.922 0H37.598V96H171.922V0Z" fill="#E30613"/>
<path d="M111.402 29.7988C111.402 30.5755 111.361 31.2453 111.28 31.8077C111.227 32.3702 111.134 32.8255 110.999 33.1738C110.893 33.4953 110.745 33.7229 110.559 33.8568C110.398 33.9907 110.197 34.0577 109.956 34.0577C109.608 34.0577 109.046 33.8167 108.27 33.3345C107.493 32.8524 106.462 32.3301 105.177 31.7674C103.892 31.205 102.353 30.6826 100.559 30.2006C98.791 29.7184 96.7298 29.4773 94.3738 29.4773C91.8585 29.4773 89.5814 29.9193 87.5475 30.8033C85.512 31.6605 83.7729 32.8925 82.3268 34.4997C80.8807 36.0801 79.7704 37.9953 78.9942 40.2453C78.218 42.4684 77.8291 44.9326 77.8291 47.6381C77.8291 50.6112 78.218 53.2363 78.9942 55.513C79.7978 57.763 80.9081 59.6515 82.3268 61.1782C83.7455 62.705 85.4452 63.8568 87.4276 64.6335C89.434 65.4103 91.6443 65.7988 94.0534 65.7988C95.2305 65.7988 96.3956 65.6649 97.547 65.3969C98.6984 65.1292 99.7693 64.7273 100.76 64.1916V52.1381H90.9213C90.4381 52.1381 90.0646 51.8434 89.7956 51.2541C89.5283 50.6381 89.3946 49.6068 89.3946 48.1605C89.3946 47.4103 89.422 46.781 89.4751 46.272C89.5557 45.763 89.6619 45.3612 89.7956 45.0667C89.9309 44.7453 90.0902 44.5176 90.2787 44.3836C90.4655 44.2229 90.6797 44.1425 90.9213 44.1425H108.47C108.898 44.1425 109.274 44.2229 109.594 44.3836C109.942 44.5176 110.237 44.7319 110.478 45.0264C110.745 45.3211 110.946 45.6826 111.08 46.1112C111.213 46.513 111.28 46.9817 111.28 47.5176V68.2096C111.28 69.013 111.134 69.7229 110.84 70.3389C110.571 70.9282 109.995 71.3969 109.113 71.7453C108.256 72.0934 107.185 72.455 105.9 72.8301C104.615 73.205 103.277 73.5264 101.884 73.7944C100.518 74.0621 99.1268 74.263 97.7081 74.3969C96.3151 74.531 94.9101 74.5978 93.4914 74.5978C89.3415 74.5978 85.62 74.0086 82.3268 72.8301C79.061 71.6246 76.2904 69.8969 74.0133 67.6469C71.7379 65.3702 69.9987 62.6112 68.7942 59.3702C67.588 56.1024 66.9866 52.4059 66.9866 48.281C66.9866 44.022 67.6291 40.205 68.9142 36.8301C70.1992 33.4282 72.0189 30.5488 74.3748 28.1916C76.7308 25.8077 79.5699 23.9863 82.8888 22.7273C86.2351 21.4684 89.9566 20.8389 94.0534 20.8389C96.3014 20.8389 98.3506 20.9997 100.198 21.3211C102.045 21.6158 103.65 21.9907 105.016 22.4462C106.409 22.8748 107.56 23.3434 108.47 23.8524C109.38 24.3612 110.009 24.8033 110.357 25.1782C110.732 25.5532 110.999 26.089 111.16 26.7854C111.321 27.455 111.402 28.4596 111.402 29.7988Z" fill="white"/>
<path d="M39.0901 0H0.658447V96H39.0901V0Z" fill="white"/>
<path d="M31.0357 30.9304C31.1693 31.3321 31.2516 31.6503 31.2858 31.8846C31.3201 32.1189 31.2738 32.2976 31.1522 32.4203C31.0288 32.5319 30.8112 32.599 30.4994 32.6212C30.1876 32.6547 29.7575 32.6715 29.2109 32.6715C28.642 32.6715 28.1965 32.6603 27.8727 32.638C27.5609 32.6269 27.321 32.5989 27.1531 32.5542C26.9852 32.4985 26.8686 32.426 26.8018 32.3367C26.735 32.2474 26.6784 32.1301 26.6339 31.9851L25.1792 27.6323H17.0457L15.6749 31.8678C15.6303 32.0241 15.5687 32.158 15.4899 32.2696C15.423 32.3701 15.3065 32.4537 15.1386 32.5208C14.9827 32.5767 14.7548 32.6156 14.4533 32.638C14.1637 32.6603 13.7782 32.6715 13.2984 32.6715C12.7844 32.6715 12.3835 32.6547 12.0939 32.6212C11.8043 32.5878 11.6022 32.5096 11.4908 32.3869C11.3794 32.253 11.34 32.0687 11.3743 31.8344C11.4068 31.6 11.4908 31.2875 11.6244 30.8968L18.3016 11.6781C18.3684 11.4884 18.4472 11.3377 18.5363 11.2261C18.6254 11.1034 18.7642 11.0141 18.9543 10.9583C19.1548 10.8913 19.4273 10.8523 19.7734 10.8411C20.1195 10.8188 20.5769 10.8076 21.1458 10.8076C21.8037 10.8076 22.3281 10.8188 22.7188 10.8411C23.1094 10.8523 23.4109 10.8913 23.6217 10.9583C23.8461 11.0141 24.0021 11.1034 24.0912 11.2261C24.1906 11.3489 24.2746 11.5163 24.3414 11.7284L31.0357 30.9304ZM21.0961 15.0431H21.0791L18.0171 24.2507H24.1581L21.0961 15.0431Z" fill="black"/>
<path d="M30.6672 69.1308C30.6672 69.4545 30.6501 69.7334 30.6158 69.9679C30.5936 70.2023 30.5559 70.3919 30.4993 70.5371C30.4548 70.6709 30.3931 70.7657 30.316 70.8216C30.2492 70.8775 30.1652 70.9053 30.0641 70.9053C29.9184 70.9053 29.6855 70.8048 29.3616 70.6039C29.0378 70.4032 28.6077 70.1855 28.0731 69.9511C27.5385 69.7168 26.896 69.4991 26.149 69.2981C25.4122 69.0972 24.5537 68.9968 23.5719 68.9968C22.5233 68.9968 21.5759 69.1811 20.7277 69.5493C19.8796 69.9064 19.1548 70.4198 18.5516 71.0896C17.9502 71.748 17.4876 72.546 17.1638 73.4834C16.84 74.4098 16.6789 75.4367 16.6789 76.5638C16.6789 77.8027 16.84 78.8964 17.1638 79.8451C17.4979 80.7825 17.9605 81.5693 18.5516 82.2055C19.1428 82.8417 19.8522 83.3217 20.678 83.6453C21.5142 83.969 22.4342 84.1308 23.4383 84.1308C23.9283 84.1308 24.415 84.0749 24.8948 83.9633C25.3728 83.8517 25.82 83.6844 26.2329 83.4611V78.4389H22.1327C21.9323 78.4389 21.7763 78.316 21.665 78.0705C21.5536 77.8139 21.497 77.3841 21.497 76.7815C21.497 76.469 21.509 76.2067 21.5313 75.9947C21.5639 75.7826 21.6084 75.6151 21.665 75.4924C21.7198 75.3585 21.7866 75.2635 21.8654 75.2078C21.9442 75.1408 22.0334 75.1073 22.1327 75.1073H29.4456C29.6238 75.1073 29.7796 75.1408 29.9133 75.2078C30.0589 75.2635 30.1806 75.3528 30.2817 75.4756C30.3931 75.5985 30.477 75.749 30.5335 75.9276C30.5884 76.0951 30.6158 76.2904 30.6158 76.5136V85.1352C30.6158 85.47 30.5559 85.7657 30.4325 86.0225C30.3211 86.268 30.0812 86.4633 29.7128 86.6085C29.3564 86.7535 28.9093 86.9042 28.3747 87.0605C27.8384 87.2167 27.2815 87.3506 26.7006 87.4622C26.1318 87.5738 25.5527 87.6576 24.9616 87.7133C24.3807 87.7692 23.7947 87.797 23.2036 87.797C21.4748 87.797 19.9241 87.5515 18.5516 87.0605C17.1912 86.5583 16.0364 85.8384 15.0888 84.9009C14.1396 83.9522 13.4148 82.8026 12.9128 81.4523C12.4107 80.0906 12.1606 78.5505 12.1606 76.8317C12.1606 75.0571 12.4279 73.4668 12.9642 72.0605C13.4988 70.643 14.2579 69.4433 15.2396 68.4611C16.2214 67.4678 17.4037 66.7089 18.7864 66.1843C20.1811 65.6597 21.7317 65.3975 23.4383 65.3975C24.3755 65.3975 25.2288 65.4645 25.9982 65.5984C26.7675 65.7211 27.4374 65.8775 28.0063 66.0672C28.5854 66.2457 29.0652 66.4411 29.4456 66.6532C29.8243 66.8652 30.0864 67.0493 30.232 67.2055C30.3879 67.3619 30.4993 67.5851 30.5662 67.8753C30.633 68.1542 30.6672 68.5728 30.6672 69.1308Z" fill="black"/>
<path d="M29.1938 46.9286L21.0894 38.2529L12.9644 46.9509L15.2038 49.3468L19.5078 44.7388V57.4135H22.6726V44.7388L26.9561 49.3248L29.1938 46.9286Z" fill="black"/>
<path fill-rule="evenodd" clip-rule="evenodd" d="M126.476 1.71429H5.79869C3.90537 1.71429 2.37186 3.24931 2.37186 5.14286V90.8571C2.37186 92.7507 3.90537 94.2857 5.79869 94.2857H126.476C127.448 94.2857 128.373 93.8739 129.022 93.1524L167.626 50.2953C168.801 48.9909 168.801 47.0091 167.626 45.7047L129.022 2.84757C128.373 2.12614 127.448 1.71429 126.476 1.71429ZM5.79869 0H126.476C127.933 0 129.32 0.617791 130.295 1.69993L168.899 44.557C170.662 46.5137 170.662 49.4863 168.899 51.443L130.295 94.3001C129.32 95.3822 127.933 96 126.476 96H5.79869C2.95956 96 0.658447 93.6975 0.658447 90.8571V5.14286C0.658447 2.30253 2.95956 0 5.79869 0Z" fill="black"/>
</g>
</svg>
