<svg width="245" height="55" viewBox="0 0 245 55" fill="none" xmlns="http://www.w3.org/2000/svg">
<path d="M81.1 21.6C81.1 22.1 81 22.7 81 23.5C81 24.3 81 25.1 81 26C81 26.9 81 27.7 81 28.5C81 29.3 81 30 81.1 30.4C81.2 31.2 81.3 32 81.6 32.7C81.8 33.4 82.2 34.1 82.8 34.6C83.3 35.2 84 35.6 84.8 35.9C85.6 36.2 86.6 36.4 87.8 36.4C89 36.4 90 36.3 90.7 36C91.5 35.7 92.1 35.4 92.6 35C93.1 34.6 93.5 34.2 93.7 33.7C94 33.2 94.2 32.8 94.3 32.3C94.5 31.7 94.7 31.3 94.9 31.1C95.1 30.9 95.5 30.8 96.1 30.8H103C103.3 30.8 103.6 30.9 103.8 31.1C104 31.3 104.1 31.6 104.1 31.9C104.1 33.7 103.6 35.4 102.8 36.9C102 38.4 100.8 39.8 99.3 41C97.8 42.2 96.1 43.1 94.1 43.8C92.1 44.5 90 44.8 87.7 44.8C85.2 44.8 82.9 44.4 80.9 43.7C78.9 42.9 77.2 41.9 75.8 40.6C74.4 39.3 73.3 37.8 72.6 36.1C71.8 34.4 71.4 32.5 71.3 30.6C71.2 29.2 71.2 27.6 71.2 26C71.2 24.4 71.2 22.8 71.3 21.3C71.4 19.4 71.8 17.5 72.6 15.8C73.4 14.1 74.4 12.6 75.8 11.3C77.2 9.99997 78.9 8.99997 80.9 8.19997C82.9 7.39997 85.2 7.09998 87.7 7.09998C90 7.09998 92.2 7.39998 94.1 8.09998C96.1 8.79998 97.8 9.69997 99.3 10.9C100.8 12.1 101.9 13.4 102.8 15C103.7 16.6 104.1 18.3 104.1 20C104.1 20.3 104 20.6 103.8 20.8C103.6 21 103.3 21.1 103 21.1H96.1C95.5 21.1 95.1 21 94.9 20.8C94.7 20.6 94.5 20.2 94.3 19.6C94.2 19.2 94 18.7 93.7 18.2C93.4 17.7 93.1 17.3 92.6 16.9C92.1 16.5 91.5 16.2 90.7 15.9C89.9 15.6 88.9 15.5 87.8 15.5C86.6 15.5 85.6 15.7 84.8 16C84 16.3 83.3 16.8 82.8 17.3C82.3 17.9 81.9 18.5 81.6 19.2C81.3 20 81.2 20.8 81.1 21.6Z" fill="white"/>
<path d="M136.5 7.59998C136.9 7.59998 137.2 7.69998 137.5 7.99998C137.8 8.29998 137.9 8.59998 137.9 8.99998V14.6C137.9 15 137.8 15.3 137.5 15.6C137.2 15.9 136.9 16 136.5 16H127.3V43C127.3 43.4 127.2 43.7 126.9 44C126.6 44.3 126.3 44.4 125.9 44.4H119C118.6 44.4 118.3 44.3 118 44C117.7 43.7 117.6 43.4 117.6 43V16H108.4C108 16 107.7 15.9 107.4 15.6C107.1 15.3 107 15 107 14.6V8.99998C107 8.59998 107.1 8.29998 107.4 7.99998C107.7 7.69998 108 7.59998 108.4 7.59998H136.5Z" fill="white"/>
<path d="M159.2 37.1C159.2 36.4 159.1 35.7999 158.8 35.2999C158.5 34.7999 158 34.4 157.3 34C156.6 33.6 155.7 33.1999 154.6 32.8999C153.5 32.5999 152.1 32.1999 150.4 31.7999C148.7 31.4 147.4 31 146.3 30.5C145.2 30 144.4 29.4 143.8 28.7999C143.2 28.1999 142.8 27.5 142.6 26.7C142.4 25.9 142.3 25.1999 142.3 24.2999C142.3 23.3999 142.5 22.5 142.9 21.6C143.3 20.7 143.9 19.9 144.7 19.2C145.5 18.5 146.5 17.8999 147.6 17.3999C148.8 16.8999 150.1 16.7 151.7 16.7C153.4 16.7 154.9 16.8999 156.1 17.3999C157.3 17.8999 158.3 18.4 159.1 19C159.9 19.6 160.4 20.2999 160.8 20.8999C161.2 21.4999 161.4 22.0999 161.4 22.3999C161.4 22.7999 161.3 23 161.1 23.2C160.9 23.4 160.6 23.5 160.3 23.5H159.5C159 23.5 158.6 23.2999 158.3 22.7999C158 22.3999 157.7 22 157.4 21.6C157.1 21.2 156.7 20.9 156.2 20.6C155.7 20.3 155.1 20.0999 154.4 19.8999C153.7 19.6999 152.8 19.6 151.7 19.6C149.6 19.6 148 19.9999 147 20.8999C146 21.7999 145.5 22.9 145.5 24.2C145.5 24.8 145.6 25.2999 145.8 25.7999C146 26.2999 146.4 26.7 147 27.1C147.6 27.5 148.4 27.9 149.4 28.2C150.4 28.6 151.8 28.9 153.5 29.2999C155.2 29.6999 156.6 30.1 157.7 30.6C158.8 31.1 159.7 31.6999 160.4 32.2999C161.1 32.9 161.6 33.6 161.9 34.5C162.2 35.3 162.3 36.2 162.3 37.2C162.3 38.3 162.1 39.2 161.6 40.2C161.1 41.1 160.5 42 159.6 42.7C158.7 43.4 157.6 43.9999 156.3 44.3999C155 44.7999 153.5 45 151.8 45C149.9 45 148.4 44.7999 147.1 44.2999C145.8 43.7999 144.7 43.2 143.9 42.6C143.1 41.9 142.4 41.3 142 40.6C141.6 39.9 141.4 39.4 141.3 39.1C141.3 38.7 141.4 38.4 141.7 38.2C142 38 142.2 37.8999 142.5 37.8999H143.3C143.5 37.8999 143.7 37.9 143.9 38C144.1 38.1 144.3 38.3 144.5 38.6C144.8 39.1 145.2 39.4999 145.6 39.8999C146 40.2999 146.5 40.7 147.1 41C147.7 41.3 148.4 41.5999 149.1 41.7999C149.9 42 150.8 42.1 151.8 42.1C153.9 42.1 155.6 41.6999 157 40.8999C158.5 39.8999 159.2 38.7 159.2 37.1Z" fill="white"/>
<path d="M169.7 20.7C170.6 19.5 171.8 18.5 173.1 17.7C174.4 16.9 176.2 16.5 178.5 16.5C180.3 16.5 181.8 16.8 183.2 17.4C184.5 18 185.6 18.8 186.5 19.9C187.4 21 188.1 22.2 188.5 23.6C189 25 189.2 26.6 189.2 28.3V43.2C189.2 44 188.8 44.4 188 44.4H187.1C186.3 44.4 185.9 44 185.9 43.2V28.6C185.9 25.8 185.2 23.6 183.9 22C182.5 20.4 180.5 19.6 177.9 19.6C175.4 19.6 173.4 20.4 171.9 22C170.4 23.6 169.6 25.8 169.6 28.6V43.3C169.6 44.1 169.2 44.5 168.4 44.5H167.5C166.7 44.5 166.3 44.1 166.3 43.3V8.29997C166.3 7.49997 166.7 7.09998 167.5 7.09998H168.4C169.2 7.09998 169.6 7.49997 169.6 8.29997V20.7H169.7Z" fill="white"/>
<path d="M205.3 16.6C207.2 16.6 208.9 16.9 210.3 17.5C211.7 18.1 212.9 19 213.9 20C214.9 21.1 215.6 22.3 216.1 23.8C216.6 25.3 216.9 26.8 217 28.5C217 28.8 217 29.1 217 29.5C217 29.9 217 30.3 217 30.7C217 31.1 217 31.5 217 31.9C217 32.3 217 32.6 217 32.9C216.9 34.6 216.6 36.2 216.1 37.6C215.6 39.1 214.9 40.3 213.9 41.4C212.9 42.5 211.7 43.3 210.3 43.9C208.9 44.5 207.2 44.8 205.3 44.8C203.4 44.8 201.7 44.5 200.3 43.9C198.9 43.3 197.7 42.4 196.7 41.4C195.7 40.3 195 39.1 194.5 37.6C194 36.1 193.7 34.6 193.7 32.9C193.7 32.7 193.7 32.3 193.7 31.9C193.7 31.5 193.7 31.1 193.7 30.7C193.7 30.3 193.7 29.9 193.7 29.5C193.7 29.1 193.7 28.8 193.7 28.5C193.7 26.8 194 25.2 194.5 23.8C195 22.3 195.8 21.1 196.7 20C197.7 18.9 198.9 18.1 200.3 17.5C201.7 16.9 203.4 16.6 205.3 16.6ZM213.8 28.8C213.7 25.8 212.9 23.5 211.3 21.9C209.8 20.3 207.8 19.6 205.3 19.6C202.8 19.6 200.9 20.4 199.3 21.9C197.8 23.5 196.9 25.7 196.8 28.8C196.8 29.3 196.7 30 196.7 30.7C196.7 31.5 196.7 32.1 196.8 32.6C196.9 35.6 197.7 37.9 199.3 39.5C200.8 41.1 202.8 41.8 205.3 41.8C207.8 41.8 209.7 41 211.3 39.5C212.8 37.9 213.7 35.7 213.8 32.6C213.8 32.1 213.9 31.4 213.9 30.7C213.8 30 213.8 29.3 213.8 28.8Z" fill="white"/>
<path d="M233.7 44.9C231.5 44.9 229.7 44.5 228.3 43.7C226.9 42.9 225.8 41.9 224.9 40.8V53.2C224.9 54 224.5 54.4 223.7 54.4H222.8C222 54.4 221.6 54 221.6 53.2V18.2C221.6 17.4 222 17 222.8 17H223.7C224.5 17 224.9 17.4 224.9 18.2V20.7C225.8 19.5 226.9 18.5 228.3 17.7C229.7 16.9 231.5 16.5 233.7 16.5C235.7 16.5 237.5 16.9 238.9 17.6C240.3 18.3 241.5 19.3 242.3 20.4C243.2 21.6 243.8 22.9 244.2 24.4C244.6 25.9 244.8 27.4 244.9 28.9C244.9 29.4 245 30 245 30.6C245 31.2 245 31.8 244.9 32.3C244.8 33.8 244.6 35.4 244.2 36.8C243.8 38.3 243.2 39.6 242.3 40.8C241.4 42 240.3 42.9 238.9 43.6C237.4 44.6 235.7 44.9 233.7 44.9ZM224.8 28.9C224.8 29.4 224.7 30.1 224.7 30.9C224.7 31.7 224.7 32.4 224.8 32.9C224.8 34 225 35 225.4 36.1C225.7 37.2 226.2 38.1 227 39C227.7 39.8 228.6 40.5 229.6 41.1C230.7 41.6 231.9 41.9 233.4 41.9C234.9 41.9 236.2 41.6 237.3 41.1C238.3 40.6 239.2 39.9 239.8 39C240.4 38.1 240.9 37.1 241.2 35.9C241.5 34.7 241.7 33.5 241.8 32.2C241.8 31.2 241.8 30.2 241.8 29.3C241.7 28 241.5 26.8 241.2 25.7C240.9 24.5 240.4 23.5 239.8 22.6C239.2 21.7 238.3 21 237.3 20.4C236.3 19.9 235 19.6 233.4 19.6C231.9 19.6 230.6 19.9 229.6 20.4C228.5 21 227.7 21.7 227 22.6C226.3 23.5 225.8 24.5 225.5 25.6C225.1 26.7 224.9 27.8 224.8 28.9Z" fill="white"/>
<path d="M49.5 21.6H37.3C34.7 21.8 32.7 23.8 32.7 26.2C32.7 28.6 34.7 30.6 37.3 30.8H49.5C52.3 30.8 54.6 28.7 54.6 26.2C54.6 23.7 52.3 21.6 49.5 21.6Z" fill="#EA4924"/>
<path d="M16.3 13.8C19 11.7 22.4 10.4 26.1 10.4C31.2 10.4 35.8 12.8 38.6 16.6L50.5 14.4C46.7 4.69999 37.2 0 26.2 0C16.2 0 7.6 5.6 3.1 13.8H16.3Z" fill="#EA4924"/>
<path d="M11.9 19.5C12.5 18.2 13.3 17 14.2 16H2.1C1.6 17.1 1.2 18.3 0.900002 19.5H11.9Z" fill="#EA4924"/>
<path d="M10.4 25.1C10.5 23.9 10.7 22.7 11 21.6H0.4C0.2 22.7 0.1 23.9 0 25.1H10.4Z" fill="#EA4924"/>
<path d="M11.1 30.7C10.8 29.6 10.5 28.4 10.5 27.2H0C0 28.4 0.2 29.6 0.4 30.7H11.1Z" fill="#EA4924"/>
<path d="M14.1 36.4C13.2 35.3 12.4 34.2 11.8 32.9H0.800003C1.1 34.1 1.5 35.3 2 36.4H14.1Z" fill="#EA4924"/>
<path d="M38.7 35.7001C35.8 39.5001 31.3 41.9001 26.2 41.9001C22.5 41.9001 19.1 40.6001 16.4 38.5001H3.10001C7.50001 46.7001 16.2 52.3001 26.1 52.3001C37.2 52.3001 46.6 47.6001 50.4 37.9001L38.7 35.7001Z" fill="#EA4924"/>
</svg>
