<svg width="144" height="49" viewBox="0 0 144 49" fill="none" xmlns="http://www.w3.org/2000/svg">
<path d="M24.05 48.1C10.79 48.1 0 37.31 0 24.05C0 10.79 10.79 0 24.05 0H119.66C132.92 0 143.71 10.79 143.71 24.05C143.71 37.31 132.92 48.1 119.66 48.1H24.05Z" fill="white"/>
<path d="M127.14 11.89H123.62V8.37C123.62 7.12 122.6 6.11 121.36 6.11C120.12 6.11 119.1 7.13 119.1 8.37V11.89H115.58C114.33 11.89 113.32 12.91 113.32 14.15C113.32 15.39 114.34 16.41 115.58 16.41H119.1V19.93C119.1 21.18 120.12 22.19 121.36 22.19C122.6 22.19 123.62 21.17 123.62 19.93V16.41H127.14C128.39 16.41 129.4 15.39 129.4 14.15C129.4 12.91 128.38 11.89 127.14 11.89Z" fill="#77B948"/>
<path d="M25.1502 12.99H18.6902C18.3002 12.99 17.9902 13.35 17.9902 13.79V34.96C17.9902 35.4 18.3102 35.76 18.6902 35.76H25.1502C31.9502 35.76 36.9502 32.79 36.9502 24.28C36.9502 15.77 32.0902 12.99 25.1502 12.99ZM25.2702 31.26H23.4602V17.5H25.2702C30.0802 17.5 31.3602 19.85 31.3602 24.38C31.3602 28.91 30.0402 31.26 25.2702 31.26Z" fill="#E6282A"/>
<path d="M43.74 20.99V19.63C43.74 19.19 43.42 18.83 43.04 18.83H39.49C39.1 18.83 38.79 19.19 38.79 19.63V34.96C38.79 35.4 39.11 35.76 39.49 35.76H43.04C43.43 35.76 43.74 35.4 43.74 34.96V28.04C43.74 23.74 46.33 22.37 48.85 23.07C49.2 23.17 49.57 22.99 49.69 22.64L50.73 19.51C50.82 19.25 50.68 18.98 50.43 18.88C48.79 18.26 45.66 17.95 43.75 20.98L43.74 20.99Z" fill="#E6282A"/>
<path d="M79.5001 35.07L77.5601 13.81C77.5201 13.37 77.1701 13.01 76.7801 13.01H71.5201C71.1301 13.01 70.7201 13.37 70.5901 13.81L66.8501 27.29L63.1101 13.81C62.9901 13.37 62.5701 13.01 62.1801 13.01H56.9201C56.5301 13.01 56.1801 13.37 56.1401 13.81L54.2001 35.07C54.1601 35.51 54.4401 35.76 54.8301 35.76H58.4301C58.8201 35.76 59.1701 35.51 59.2101 35.07L60.6901 21.21L64.5101 35.07C64.6101 35.43 64.8001 35.76 65.2001 35.76H68.5001C68.9201 35.76 69.0901 35.43 69.1901 35.07L73.0101 21.21L74.2701 35.07C74.3101 35.51 74.6601 35.76 75.0501 35.76H78.8701C79.2601 35.76 79.5401 35.51 79.5001 35.07Z" fill="#E6282A"/>
<path d="M49.3101 36.05C50.6467 36.05 51.7301 34.9173 51.7301 33.52C51.7301 32.1227 50.6467 30.99 49.3101 30.99C47.9736 30.99 46.8901 32.1227 46.8901 33.52C46.8901 34.9173 47.9736 36.05 49.3101 36.05Z" fill="#E6282A"/>
<path d="M116.27 34.97L110.52 27.06L116.05 19.47C116.27 19.15 116.11 18.84 115.67 18.84H111.48C111.03 18.84 110.77 18.9 110.45 19.35L107.74 23.09L105.03 19.35C104.71 18.91 104.44 18.84 104 18.84H99.81C99.36 18.84 99.21 19.15 99.43 19.47L104.96 27.06L99.21 34.97C98.93 35.32 99.09 35.77 99.52 35.77H103.75C104.19 35.77 104.48 35.55 104.74 35.2L107.75 31.05L110.76 35.2C111.02 35.56 111.31 35.77 111.75 35.77H115.98C116.41 35.77 116.57 35.32 116.29 34.97H116.27Z" fill="#E6282A"/>
<path d="M93.4502 35.78C93.0102 35.78 92.6602 35.43 92.6602 34.99V33.11H92.6002C91.2702 35.23 89.6502 36.18 87.2602 36.18C83.9302 36.18 80.9502 34.52 80.9502 30.83C80.9502 25.64 86.5502 25.02 89.6602 25.02C90.6002 25.02 91.6302 25.12 92.3802 25.25C92.3502 22.93 90.6302 22.31 88.5302 22.31C86.8102 22.31 85.1502 22.58 83.6302 23.34C83.4402 23.43 83.1502 23.22 83.1402 23.01L83.0702 20.05C83.0702 19.78 83.2202 19.54 83.4702 19.44C85.4202 18.71 87.4602 18.4 89.7902 18.4C94.0902 18.4 97.8202 20.26 97.8202 25.44V35.02C97.8202 35.44 97.4802 35.78 97.0602 35.78H93.4602H93.4502ZM88.7702 32.26C90.9702 32.26 92.3602 30.24 92.3602 28.25C91.6202 28.22 90.7702 28.15 89.9002 28.15C87.9302 28.15 86.3702 28.77 86.3702 30.4C86.3702 31.57 87.4102 32.26 88.7702 32.26Z" fill="#E6282A"/>
</svg>
