<svg width="169" height="93" viewBox="0 0 169 93" fill="none" xmlns="http://www.w3.org/2000/svg">
<path d="M130.941 0.970215C136.855 0.970215 142.393 3.87577 145.753 8.74281L164.973 36.5791C169.206 42.7097 169.225 50.8146 165.021 56.9648L145.747 85.1582C142.393 90.0652 136.832 92.9998 130.888 92.9998H18.6985C1.53467 92.9998 -5.89056 71.2611 7.68676 60.761L80.1365 4.73144C83.2894 2.29312 87.1624 0.970215 91.1482 0.970215H130.941Z" fill="#9F1419"/>
<path d="M132.13 44.9967V43.5467L133.372 43.3741L139.23 28.2417H141.175L146.928 43.3741L148.16 43.5467V44.9967H143.349V43.5467L144.615 43.3281L143.511 40.2441H136.802L135.662 43.3281L136.928 43.5467V44.9967H132.13ZM137.504 38.3453H142.82L140.358 31.5329L140.219 31.1531H140.15L140.012 31.5329L137.504 38.3453Z" fill="white"/>
<path d="M117.485 44.9969V43.5469L119.361 43.2247V30.0256L117.485 29.7034V28.2534H124.953C126.173 28.2534 127.201 28.4375 128.038 28.8058C128.881 29.1663 129.522 29.6919 129.959 30.3823C130.397 31.0728 130.615 31.9167 130.615 32.914C130.615 33.8959 130.4 34.7207 129.971 35.3881C129.549 36.0555 128.947 36.5619 128.164 36.9071C127.382 37.2446 126.453 37.4249 125.379 37.4479L121.628 37.517V43.2247L123.504 43.5469V44.9969H117.485ZM128.544 44.9969L124.815 36.6309L127.082 36.6079L130.178 43.3053L131.34 43.5124V44.9969H128.544ZM121.628 35.7333H124.723C125.989 35.7333 126.91 35.4917 127.485 35.0083C128.061 34.525 128.348 33.8192 128.348 32.891C128.348 32.0087 128.072 31.3106 127.52 30.7966C126.967 30.2826 126.112 30.0256 124.953 30.0256H121.628V35.7333Z" fill="white"/>
<path d="M103.45 44.9967V43.5467L105.326 43.2245V30.0254L103.45 29.7032V28.2417H105.326H110.677C112.426 28.2417 113.792 28.6214 114.774 29.3809C115.763 30.1328 116.258 31.2643 116.258 32.7757C116.258 33.5198 116.02 34.1873 115.545 34.778C115.077 35.361 114.455 35.7945 113.68 36.0783C114.356 36.2164 114.935 36.4888 115.418 36.8954C115.901 37.2943 116.273 37.7853 116.534 38.3683C116.803 38.9437 116.937 39.5766 116.937 40.2671C116.937 41.8014 116.438 42.9752 115.441 43.7884C114.444 44.5939 113.094 44.9967 111.39 44.9967H103.45ZM107.593 43.2245H111.39C112.426 43.2245 113.228 42.9714 113.795 42.465C114.371 41.951 114.659 41.226 114.659 40.2901C114.659 39.3081 114.417 38.5371 113.934 37.9771C113.458 37.417 112.725 37.137 111.736 37.137H107.593V43.2245ZM107.593 35.3649H111.264C112.077 35.3649 112.733 35.1309 113.232 34.6629C113.738 34.1873 113.991 33.5428 113.991 32.7296C113.991 31.8244 113.707 31.1493 113.14 30.7043C112.572 30.2517 111.751 30.0254 110.677 30.0254H107.593V35.3649Z" fill="white"/>
<path d="M95.9059 45.2383C94.8242 45.2383 93.8537 45.0312 92.9945 44.6169C92.1353 44.2026 91.4026 43.6196 90.7966 42.8677C90.1982 42.1082 89.7379 41.2107 89.4157 40.175C89.1011 39.1393 88.9438 37.9962 88.9438 36.7457V36.5041C88.9438 35.2613 89.1011 34.122 89.4157 33.0863C89.7379 32.043 90.1982 31.1416 90.7966 30.3821C91.4026 29.6226 92.1353 29.0357 92.9945 28.6214C93.8537 28.2071 94.8242 28 95.9059 28C97.049 28 98.054 28.2071 98.9209 28.6214C99.7878 29.0357 100.513 29.6226 101.096 30.3821C101.687 31.1416 102.131 32.043 102.431 33.0863C102.73 34.122 102.879 35.2613 102.879 36.5041V36.7457C102.879 37.9962 102.73 39.1393 102.431 40.175C102.131 41.2107 101.687 42.1082 101.096 42.8677C100.513 43.6196 99.7878 44.2026 98.9209 44.6169C98.054 45.0312 97.049 45.2383 95.9059 45.2383ZM95.9059 43.3511C97.0183 43.3511 97.9159 43.0749 98.5987 42.5225C99.2891 41.9702 99.7955 41.1991 100.118 40.2095C100.44 39.2122 100.601 38.0576 100.601 36.7457V36.4811C100.601 35.1769 100.436 34.0338 100.106 33.0518C99.784 32.0622 99.2776 31.2912 98.5872 30.7388C97.8967 30.1788 97.003 29.8987 95.9059 29.8987C94.9009 29.8987 94.0494 30.1788 93.3512 30.7388C92.6531 31.2988 92.1238 32.0737 91.7632 33.0633C91.4026 34.0453 91.2223 35.1845 91.2223 36.4811V36.7457C91.2223 38.0499 91.4026 39.2007 91.7632 40.198C92.1238 41.1876 92.6531 41.9625 93.3512 42.5225C94.0494 43.0749 94.9009 43.3511 95.9059 43.3511Z" fill="white"/>
<path d="M74 44.9967V43.5467L75.8757 43.2245V30.0254L74 29.7032V28.2417H75.8757H80.5593C82.0399 28.2417 83.3288 28.5946 84.4258 29.3004C85.5306 30.0062 86.3898 30.9767 87.0035 32.2118C87.6173 33.4469 87.9241 34.8585 87.9241 36.4466V36.8033C87.9241 38.353 87.6288 39.7492 87.038 40.9921C86.4473 42.2272 85.6073 43.2053 84.5179 43.9265C83.4362 44.6399 82.155 44.9967 80.6744 44.9967H74ZM78.1427 43.2245H80.5593C81.618 43.2245 82.5271 42.9368 83.2866 42.3615C84.0461 41.7784 84.6291 41.0036 85.0357 40.0369C85.45 39.0626 85.6571 37.9847 85.6571 36.8033V36.4236C85.6571 35.2038 85.45 34.1144 85.0357 33.1554C84.6291 32.1888 84.0461 31.4255 83.2866 30.8654C82.5271 30.3054 81.618 30.0254 80.5593 30.0254H78.1427V43.2245Z" fill="white"/>
<path d="M111.791 80.5504V78.545L113.51 78.3062L121.612 57.376H124.302L132.26 78.3062L133.963 78.545V80.5504H127.31V78.545L129.061 78.2425L127.533 73.9769H118.253L116.678 78.2425L118.428 78.545V80.5504H111.791ZM119.224 71.3507H126.578L123.172 61.9281L122.981 61.4029H122.885L122.694 61.9281L119.224 71.3507Z" fill="white"/>
<path d="M88.2888 80.5504V78.545L90.8832 78.0993V59.843L88.2888 59.3974V57.376H90.8832H94.0506L105.415 75.4412L105.511 75.4094V59.843L102.661 59.3974V57.376H108.391H110.986V59.3974L108.391 59.843V80.5504H105.526L93.8596 62.3897L93.7641 62.4215V78.0993L96.6132 78.545V80.5504H88.2888Z" fill="white"/>
<path d="M69.0996 80.5504V78.545L71.694 78.0993V59.843L69.0996 59.3974V57.376H86.2576V62.9468H83.7428L83.3927 59.7953H74.8296V67.3397H83.3767V69.8068H74.8296V78.1948H83.902L84.2521 74.9956H86.751V80.5504H69.0996Z" fill="white"/>
<path d="M58.8237 80.8847C57.5398 80.8847 56.3726 80.63 55.3221 80.1207C54.2822 79.6114 53.4439 78.8421 52.8073 77.8128C52.1812 76.7835 51.8364 75.4943 51.7727 73.9451L51.8045 73.8496H54.8128C54.8552 75.4094 55.2107 76.5554 55.8792 77.2876C56.5583 78.0197 57.5239 78.3858 58.776 78.3858C59.6567 78.3858 60.3782 78.2001 60.9406 77.8287C61.503 77.4467 61.9168 76.9268 62.1821 76.2689C62.458 75.6004 62.5959 74.8364 62.5959 73.9769V59.843L59.5081 59.4292V57.376H68.3259V59.3974L65.7315 59.843V73.9769C65.7315 75.3564 65.4662 76.566 64.9357 77.6059C64.4157 78.6458 63.6411 79.4522 62.6119 80.0252C61.5932 80.5982 60.3305 80.8847 58.8237 80.8847Z" fill="white"/>
<path d="M42.8179 80.5504V78.545L45.4123 78.0993V59.843L42.8179 59.3974V57.376H51.1422V59.3974L48.5478 59.843V78.0993L51.1422 78.545V80.5504H42.8179Z" fill="white"/>
<path d="M34.3884 80.8845C32.0646 80.8845 30.1228 80.3751 28.563 79.3565C27.0137 78.3378 25.8465 76.9425 25.0613 75.1704C24.2867 73.3984 23.8994 71.3876 23.8994 69.1381V68.8038C23.8994 66.5331 24.3079 64.517 25.125 62.7555C25.942 60.9835 27.1146 59.5881 28.6425 58.5695C30.1705 57.5508 31.9956 57.0415 34.1178 57.0415C35.614 57.0415 36.9828 57.2749 38.2243 57.7418C39.4658 58.2087 40.495 58.8029 41.3121 59.5245V64.5223H38.8132L38.479 60.8615C38.1394 60.5962 37.7468 60.3734 37.3011 60.193C36.8661 60.0126 36.378 59.8746 35.8368 59.7791C35.3063 59.6836 34.728 59.6359 34.1019 59.6359C32.5845 59.6359 31.3006 60.0285 30.2501 60.8137C29.1996 61.5883 28.4038 62.66 27.8626 64.0289C27.3215 65.3977 27.0509 66.9787 27.0509 68.772V69.1381C27.0509 71.0799 27.3374 72.7405 27.9104 74.1199C28.494 75.4888 29.3376 76.5339 30.4411 77.2555C31.5553 77.977 32.9082 78.3378 34.4998 78.3378C35.2426 78.3378 35.9694 78.2476 36.6804 78.0672C37.3913 77.8869 37.9802 77.6534 38.4471 77.3669L38.7973 74.1359H41.2484V79.1655C40.3783 79.7066 39.3384 80.1311 38.1288 80.4388C36.9191 80.7359 35.6723 80.8845 34.3884 80.8845Z" fill="white"/>
</svg>
