<svg width="202" height="91" viewBox="0 0 202 91" fill="none" xmlns="http://www.w3.org/2000/svg">
<path d="M161.542 0C167.464 0 173.006 2.91226 176.366 7.78856L195 34.8393C199.219 40.9628 199.238 49.05 195.048 55.1931L176.36 82.5933C173.006 87.5096 167.44 90.4509 161.489 90.4509H18C8.0589 90.4509 0 82.392 0 72.4509V18C0 8.05886 8.05888 0 18 0H161.542Z" fill="#014B7B"/>
<path d="M152.639 67.3869C149.791 67.3869 147.236 66.8416 144.974 65.7508C142.711 64.6601 140.782 63.125 139.187 61.1455C137.611 59.1458 136.399 56.7825 135.551 54.0557C134.723 51.3288 134.309 48.3192 134.309 45.0267V44.3905C134.309 41.1183 134.723 38.1187 135.551 35.3919C136.399 32.6448 137.611 30.2715 139.187 28.2718C140.782 26.2721 142.711 24.7269 144.974 23.6361C147.236 22.5454 149.791 22 152.639 22C155.649 22 158.295 22.5454 160.577 23.6361C162.86 24.7269 164.769 26.2721 166.304 28.2718C167.859 30.2715 169.03 32.6448 169.818 35.3919C170.606 38.1187 171 41.1183 171 44.3905V45.0267C171 48.3192 170.606 51.3288 169.818 54.0557C169.03 56.7825 167.859 59.1458 166.304 61.1455C164.769 63.125 162.86 64.6601 160.577 65.7508C158.295 66.8416 155.649 67.3869 152.639 67.3869ZM152.639 62.418C155.568 62.418 157.931 61.6908 159.729 60.2365C161.547 58.7822 162.88 56.7522 163.728 54.1465C164.577 51.5207 165.001 48.4808 165.001 45.0267V44.3299C165.001 40.8961 164.567 37.8864 163.698 35.301C162.85 32.6953 161.517 30.6653 159.699 29.211C157.881 27.7365 155.528 26.9992 152.639 26.9992C149.993 26.9992 147.751 27.7365 145.913 29.211C144.075 30.6855 142.681 32.7256 141.732 35.3313C140.782 37.9167 140.308 40.9163 140.308 44.3299V45.0267C140.308 48.4606 140.782 51.4904 141.732 54.1163C142.681 56.7219 144.075 58.762 145.913 60.2365C147.751 61.6908 149.993 62.418 152.639 62.418Z" fill="white"/>
<path d="M111.87 66.7511L97.0839 26.9694L93.5693 26.4846V22.6367H107.507V26.4846L103.477 27.1209L113.354 55.1771L114.384 58.6615H114.566L115.657 55.1771L125.898 27.0906L121.414 26.4846V22.6367H135.32V26.4846L131.776 26.9694L116.99 66.7511H111.87Z" fill="white"/>
<path d="M76.0693 67.3869C73.2212 67.3869 70.6661 66.8416 68.4038 65.7508C66.1415 64.6601 64.2125 63.125 62.6168 61.1455C61.0413 59.1458 59.8294 56.7825 58.981 54.0557C58.1528 51.3288 57.7388 48.3192 57.7388 45.0267V44.3905C57.7388 41.1183 58.1528 38.1187 58.981 35.3919C59.8294 32.6448 61.0413 30.2715 62.6168 28.2718C64.2125 26.2721 66.1415 24.7269 68.4038 23.6361C70.6661 22.5454 73.2212 22 76.0693 22C79.0789 22 81.725 22.5454 84.0074 23.6361C86.2899 24.7269 88.1987 26.2721 89.7338 28.2718C91.2891 30.2715 92.4607 32.6448 93.2484 35.3919C94.0362 38.1187 94.4301 41.1183 94.4301 44.3905V45.0267C94.4301 48.3192 94.0362 51.3288 93.2484 54.0557C92.4607 56.7825 91.2891 59.1458 89.7338 61.1455C88.1987 63.125 86.2899 64.6601 84.0074 65.7508C81.725 66.8416 79.0789 67.3869 76.0693 67.3869ZM76.0693 62.418C78.9981 62.418 81.3614 61.6908 83.1591 60.2365C84.977 58.7822 86.3101 56.7522 87.1585 54.1465C88.0068 51.5207 88.431 48.4808 88.431 45.0267V44.3299C88.431 40.8961 87.9967 37.8864 87.1282 35.301C86.2798 32.6953 84.9467 30.6653 83.1288 29.211C81.3109 27.7365 78.9577 26.9992 76.0693 26.9992C73.4232 26.9992 71.1811 27.7365 69.343 29.211C67.5049 30.6855 66.1112 32.7256 65.1619 35.3313C64.2125 37.9167 63.7378 40.9163 63.7378 44.3299V45.0267C63.7378 48.4606 64.2125 51.4904 65.1619 54.1163C66.1112 56.7219 67.5049 58.762 69.343 60.2365C71.1811 61.6908 73.4232 62.418 76.0693 62.418Z" fill="white"/>
<path d="M13 66.7511V62.9335L17.9386 62.0852V27.333L13 26.4846V22.6367H17.9386H23.968L45.601 57.0253L45.7828 56.9648V27.333L40.3594 26.4846V22.6367H51.2668H56.2054V26.4846L51.2668 27.333V66.7511H45.8131L23.6044 32.1807L23.4226 32.2413V62.0852L28.846 62.9335V66.7511H13Z" fill="white"/>
</svg>
